<svg xmlns="http://www.w3.org/2000/svg" xmlns:xlink="http://www.w3.org/1999/xlink" width="191" zoomAndPan="magnify" viewBox="0 0 143.25 215.999994" height="288" preserveAspectRatio="xMidYMid meet" version="1.0"><defs><g/><clipPath id="771d242596"><path d="M 0 46.78125 L 141.921875 46.78125 L 141.921875 188.703125 L 0 188.703125 Z M 0 46.78125 " clip-rule="nonzero"/></clipPath><clipPath id="6a1cf259d2"><path d="M 70.960938 46.78125 C 31.769531 46.78125 0 78.550781 0 117.742188 C 0 156.929688 31.769531 188.703125 70.960938 188.703125 C 110.152344 188.703125 141.921875 156.929688 141.921875 117.742188 C 141.921875 78.550781 110.152344 46.78125 70.960938 46.78125 Z M 70.960938 46.78125 " clip-rule="nonzero"/></clipPath></defs><g clip-path="url(#771d242596)"><g clip-path="url(#6a1cf259d2)"><path fill="#ace7ef" d="M 0 46.78125 L 141.921875 46.78125 L 141.921875 188.703125 L 0 188.703125 Z M 0 46.78125 " fill-opacity="1" fill-rule="nonzero"/></g></g><g fill="#ffffff" fill-opacity="1"><g transform="translate(41.617175, 153.314165)"><g><path d="M 3.5 -3.09375 C 3.675781 -4.882812 4.164062 -6.226562 4.96875 -7.125 C 5.957031 -8.289062 7.300781 -8.875 9 -8.875 C 13.84375 -8.875 17.203125 -9.050781 19.078125 -9.40625 C 20.148438 -9.582031 20.957031 -10.117188 21.5 -11.015625 C 22.21875 -12.179688 22.578125 -14.46875 22.578125 -17.875 L 22.578125 -45.828125 C 22.578125 -46.898438 22.578125 -47.859375 22.578125 -48.703125 C 22.578125 -49.554688 22.550781 -50.316406 22.5 -50.984375 C 22.457031 -51.660156 22.390625 -52.242188 22.296875 -52.734375 C 22.210938 -53.234375 22.125 -53.660156 22.03125 -54.015625 C 21.851562 -54.828125 21.628906 -55.273438 21.359375 -55.359375 C 20.554688 -55.722656 18.945312 -55.90625 16.53125 -55.90625 L 9.9375 -55.90625 C 8.144531 -55.90625 6.734375 -56.578125 5.703125 -57.921875 C 4.679688 -59.265625 4.171875 -60.785156 4.171875 -62.484375 L 4.171875 -62.75 C 4.347656 -65.164062 5.109375 -66.820312 6.453125 -67.71875 C 7.429688 -68.4375 8.59375 -68.796875 9.9375 -68.796875 L 11.421875 -68.796875 C 14.828125 -68.796875 18.140625 -69.332031 21.359375 -70.40625 C 23.148438 -71.039062 24.988281 -71.710938 26.875 -72.421875 C 28.757812 -73.140625 30.773438 -73.90625 32.921875 -74.71875 L 33.0625 -74.84375 C 33.957031 -75.113281 34.757812 -75.25 35.46875 -75.25 C 37.257812 -75.25 38.625 -74.578125 39.5625 -73.234375 C 40.507812 -71.890625 40.984375 -70.410156 40.984375 -68.796875 L 40.984375 -17.875 C 40.984375 -16.976562 41.003906 -16.148438 41.046875 -15.390625 C 41.097656 -14.628906 41.1875 -13.957031 41.3125 -13.375 C 41.445312 -12.789062 41.5625 -12.296875 41.65625 -11.890625 C 41.75 -11.484375 41.835938 -11.191406 41.921875 -11.015625 C 42.367188 -10.210938 43.128906 -9.675781 44.203125 -9.40625 C 45.992188 -9.050781 49 -8.875 53.21875 -8.875 L 54.5625 -8.875 C 56.257812 -8.875 57.601562 -8.289062 58.59375 -7.125 C 59.394531 -6.226562 59.882812 -4.882812 60.0625 -3.09375 L 60.0625 -2.828125 C 60.0625 -1.117188 59.546875 0.40625 58.515625 1.75 C 57.484375 3.09375 56.03125 3.765625 54.15625 3.765625 C 47.707031 3.492188 40.226562 3.359375 31.71875 3.359375 C 23.289062 3.359375 15.851562 3.492188 9.40625 3.765625 C 7.519531 3.765625 6.0625 3.09375 5.03125 1.75 C 4.007812 0.40625 3.5 -1.117188 3.5 -2.828125 Z M 3.5 -3.09375 "/></g></g></g></svg>