<svg xmlns="http://www.w3.org/2000/svg" xmlns:xlink="http://www.w3.org/1999/xlink" width="191" zoomAndPan="magnify" viewBox="0 0 143.25 215.999994" height="288" preserveAspectRatio="xMidYMid meet" version="1.0"><defs><g/><clipPath id="d82eaa9084"><path d="M 0 46.78125 L 141.921875 46.78125 L 141.921875 188.703125 L 0 188.703125 Z M 0 46.78125 " clip-rule="nonzero"/></clipPath><clipPath id="08ad687285"><path d="M 70.960938 46.78125 C 31.769531 46.78125 0 78.550781 0 117.742188 C 0 156.929688 31.769531 188.703125 70.960938 188.703125 C 110.152344 188.703125 141.921875 156.929688 141.921875 117.742188 C 141.921875 78.550781 110.152344 46.78125 70.960938 46.78125 Z M 70.960938 46.78125 " clip-rule="nonzero"/></clipPath></defs><g clip-path="url(#d82eaa9084)"><g clip-path="url(#08ad687285)"><path fill="#ace7ef" d="M 0 46.78125 L 141.921875 46.78125 L 141.921875 188.703125 L 0 188.703125 Z M 0 46.78125 " fill-opacity="1" fill-rule="nonzero"/></g></g><g fill="#ffffff" fill-opacity="1"><g transform="translate(37.802088, 153.314165)"><g><path d="M 2.828125 -4.96875 C 2.910156 -7.570312 3.671875 -9.769531 5.109375 -11.5625 C 6.273438 -12.988281 8.066406 -14.507812 10.484375 -16.125 C 14.515625 -18.8125 18.007812 -21.226562 20.96875 -23.375 C 23.207031 -24.988281 25.128906 -26.425781 26.734375 -27.6875 C 30.316406 -30.550781 33.585938 -34.222656 36.546875 -38.703125 C 37.984375 -40.765625 39.035156 -42.957031 39.703125 -45.28125 C 40.378906 -47.613281 40.71875 -50.125 40.71875 -52.8125 C 40.71875 -56.21875 39.863281 -58.769531 38.15625 -60.46875 C 36.550781 -62.164062 34.179688 -63.015625 31.046875 -63.015625 C 28.265625 -63.015625 26.066406 -62.390625 24.453125 -61.140625 C 23.023438 -60.066406 22.3125 -58.546875 22.3125 -56.578125 C 22.3125 -55.765625 22.488281 -55.132812 22.84375 -54.6875 C 23.019531 -54.414062 23.195312 -54.164062 23.375 -53.9375 C 23.5625 -53.71875 23.742188 -53.519531 23.921875 -53.34375 C 24.097656 -53.164062 24.234375 -52.988281 24.328125 -52.8125 C 24.410156 -52.8125 24.609375 -52.765625 24.921875 -52.671875 C 25.234375 -52.585938 25.5 -52.453125 25.71875 -52.265625 C 25.945312 -52.085938 26.171875 -51.726562 26.390625 -51.1875 C 26.617188 -50.65625 26.734375 -49.988281 26.734375 -49.1875 C 26.734375 -48.550781 26.644531 -47.960938 26.46875 -47.421875 C 26.289062 -46.890625 26 -46.398438 25.59375 -45.953125 C 25.195312 -45.503906 24.882812 -45.191406 24.65625 -45.015625 C 24.4375 -44.835938 24.054688 -44.566406 23.515625 -44.203125 C 22.972656 -43.753906 22.34375 -43.375 21.625 -43.0625 C 20.914062 -42.75 20.203125 -42.523438 19.484375 -42.390625 C 18.765625 -42.253906 18.003906 -42.1875 17.203125 -42.1875 C 13.441406 -42.28125 10.394531 -43.492188 8.0625 -45.828125 C 6.988281 -47.078125 6.160156 -48.460938 5.578125 -49.984375 C 4.992188 -51.503906 4.703125 -53.117188 4.703125 -54.828125 C 4.703125 -59.304688 6.222656 -63.113281 9.265625 -66.25 C 12.046875 -69.207031 15.585938 -71.359375 19.890625 -72.703125 C 23.023438 -73.679688 26.203125 -74.257812 29.421875 -74.4375 C 29.960938 -74.53125 30.457031 -74.578125 30.90625 -74.578125 C 31.351562 -74.578125 31.800781 -74.578125 32.25 -74.578125 C 39.6875 -74.578125 46.132812 -72.738281 51.59375 -69.0625 C 57.414062 -65.03125 60.328125 -59.03125 60.328125 -51.0625 C 60.328125 -49.988281 60.257812 -48.910156 60.125 -47.828125 C 60 -46.753906 59.820312 -45.679688 59.59375 -44.609375 C 59.375 -43.535156 59.082031 -42.503906 58.71875 -41.515625 C 58.363281 -40.535156 57.9375 -39.550781 57.4375 -38.5625 C 56.945312 -37.582031 56.390625 -36.644531 55.765625 -35.75 C 52.804688 -31.445312 49.359375 -27.769531 45.421875 -24.71875 C 41.566406 -21.769531 36.59375 -18.367188 30.5 -14.515625 C 29.695312 -13.972656 28.890625 -13.4375 28.078125 -12.90625 L 54.15625 -12.90625 C 56.925781 -12.90625 59.03125 -12.546875 60.46875 -11.828125 C 62.800781 -10.753906 63.96875 -8.425781 63.96875 -4.84375 C 63.96875 -2.414062 63.226562 -0.441406 61.75 1.078125 C 60.269531 2.597656 58.320312 3.359375 55.90625 3.359375 L 10.890625 3.359375 C 8.460938 3.359375 6.507812 2.597656 5.03125 1.078125 C 3.5625 -0.441406 2.828125 -2.414062 2.828125 -4.84375 Z M 2.828125 -4.96875 "/></g></g></g></svg>