<svg xmlns="http://www.w3.org/2000/svg" xmlns:xlink="http://www.w3.org/1999/xlink" width="191" zoomAndPan="magnify" viewBox="0 0 143.25 215.999994" height="288" preserveAspectRatio="xMidYMid meet" version="1.0"><defs><g/><clipPath id="1d179ee20d"><path d="M 0 46.78125 L 141.921875 46.78125 L 141.921875 188.703125 L 0 188.703125 Z M 0 46.78125 " clip-rule="nonzero"/></clipPath><clipPath id="221050afe9"><path d="M 70.960938 46.78125 C 31.769531 46.78125 0 78.550781 0 117.742188 C 0 156.929688 31.769531 188.703125 70.960938 188.703125 C 110.152344 188.703125 141.921875 156.929688 141.921875 117.742188 C 141.921875 78.550781 110.152344 46.78125 70.960938 46.78125 Z M 70.960938 46.78125 " clip-rule="nonzero"/></clipPath></defs><g clip-path="url(#1d179ee20d)"><g clip-path="url(#221050afe9)"><path fill="#ace7ef" d="M 0 46.78125 L 141.921875 46.78125 L 141.921875 188.703125 L 0 188.703125 Z M 0 46.78125 " fill-opacity="1" fill-rule="nonzero"/></g></g><g fill="#ffffff" fill-opacity="1"><g transform="translate(37.802088, 153.314165)"><g><path d="M 11.953125 1.75 C 6.316406 -1.382812 3.5 -6.085938 3.5 -12.359375 C 3.5 -15.765625 4.570312 -18.722656 6.71875 -21.234375 C 9.050781 -23.921875 12.140625 -25.265625 15.984375 -25.265625 C 18.410156 -25.265625 20.519531 -24.59375 22.3125 -23.25 C 24.457031 -21.726562 25.53125 -20.070312 25.53125 -18.28125 C 25.53125 -17.644531 25.460938 -17.101562 25.328125 -16.65625 C 25.191406 -16.207031 25.035156 -15.867188 24.859375 -15.640625 C 24.679688 -15.421875 24.476562 -15.222656 24.25 -15.046875 C 24.03125 -14.867188 23.828125 -14.753906 23.640625 -14.703125 C 23.460938 -14.660156 23.304688 -14.617188 23.171875 -14.578125 C 23.046875 -14.535156 22.984375 -14.515625 22.984375 -14.515625 C 22.796875 -14.421875 22.632812 -14.304688 22.5 -14.171875 C 22.375 -14.035156 22.21875 -13.878906 22.03125 -13.703125 C 21.851562 -13.523438 21.675781 -13.300781 21.5 -13.03125 C 21.40625 -12.851562 21.3125 -12.609375 21.21875 -12.296875 C 21.132812 -11.984375 21.09375 -11.601562 21.09375 -11.15625 C 21.09375 -10.257812 21.25 -9.539062 21.5625 -9 C 21.875 -8.46875 22.390625 -7.929688 23.109375 -7.390625 C 24.003906 -6.847656 25.078125 -6.421875 26.328125 -6.109375 C 27.585938 -5.796875 29.023438 -5.640625 30.640625 -5.640625 C 34.578125 -5.640625 37.394531 -6.578125 39.09375 -8.453125 C 40.800781 -10.335938 41.65625 -13.613281 41.65625 -18.28125 C 41.65625 -18.90625 41.628906 -19.507812 41.578125 -20.09375 C 41.535156 -20.675781 41.46875 -21.210938 41.375 -21.703125 C 41.289062 -22.191406 41.160156 -22.660156 40.984375 -23.109375 C 40.804688 -23.554688 40.625 -23.984375 40.4375 -24.390625 C 40.257812 -24.796875 40.035156 -25.175781 39.765625 -25.53125 C 39.503906 -25.882812 39.238281 -26.242188 38.96875 -26.609375 C 38.425781 -27.328125 37.707031 -27.910156 36.8125 -28.359375 C 35.289062 -29.160156 33.320312 -29.648438 30.90625 -29.828125 L 26.0625 -29.828125 C 24.269531 -29.828125 22.835938 -30.585938 21.765625 -32.109375 C 21.046875 -33.191406 20.6875 -34.445312 20.6875 -35.875 C 20.6875 -36.59375 20.773438 -37.265625 20.953125 -37.890625 C 21.140625 -38.515625 21.410156 -39.144531 21.765625 -39.78125 C 22.660156 -41.207031 23.914062 -42.054688 25.53125 -42.328125 L 30.90625 -42.328125 C 32.425781 -42.503906 33.722656 -43 34.796875 -43.8125 C 35.160156 -44.070312 35.5 -44.359375 35.8125 -44.671875 C 36.125 -44.992188 36.457031 -45.332031 36.8125 -45.6875 C 38.425781 -47.832031 39.234375 -50.519531 39.234375 -53.75 C 39.234375 -57.0625 38.382812 -59.523438 36.6875 -61.140625 C 34.894531 -62.835938 32.832031 -63.6875 30.5 -63.6875 C 29.332031 -63.6875 28.28125 -63.53125 27.34375 -63.21875 C 26.40625 -62.90625 25.53125 -62.4375 24.71875 -61.8125 C 24.269531 -61.457031 23.890625 -61.054688 23.578125 -60.609375 C 23.265625 -60.160156 23.039062 -59.664062 22.90625 -59.125 C 22.769531 -58.582031 22.703125 -57.957031 22.703125 -57.25 C 22.703125 -56.882812 22.722656 -56.546875 22.765625 -56.234375 C 22.816406 -55.921875 22.84375 -55.71875 22.84375 -55.625 L 23.375 -55.359375 C 23.46875 -55.359375 23.601562 -55.378906 23.78125 -55.421875 C 23.957031 -55.472656 24.25 -55.472656 24.65625 -55.421875 C 25.0625 -55.378906 25.441406 -55.269531 25.796875 -55.09375 C 26.160156 -54.914062 26.472656 -54.535156 26.734375 -53.953125 C 27.003906 -53.367188 27.140625 -52.628906 27.140625 -51.734375 C 27.140625 -51.109375 27.050781 -50.523438 26.875 -49.984375 C 26.695312 -49.453125 26.40625 -48.960938 26 -48.515625 C 25.59375 -48.066406 25.273438 -47.75 25.046875 -47.5625 C 24.828125 -47.382812 24.453125 -47.117188 23.921875 -46.765625 C 23.023438 -46.046875 22.035156 -45.53125 20.953125 -45.21875 C 19.878906 -44.90625 18.765625 -44.75 17.609375 -44.75 C 13.753906 -44.75 10.660156 -46.003906 8.328125 -48.515625 C 6.179688 -50.929688 5.109375 -53.972656 5.109375 -57.640625 C 5.109375 -63.285156 7.707031 -67.675781 12.90625 -70.8125 C 17.5625 -73.5 23.472656 -74.84375 30.640625 -74.84375 C 34.398438 -74.84375 37.890625 -74.414062 41.109375 -73.5625 C 44.335938 -72.71875 47.253906 -71.441406 49.859375 -69.734375 C 52.546875 -67.941406 54.601562 -65.679688 56.03125 -62.953125 C 57.46875 -60.222656 58.1875 -57.15625 58.1875 -53.75 C 58.1875 -49.175781 56.617188 -44.96875 53.484375 -41.125 C 52.140625 -39.59375 50.613281 -38.203125 48.90625 -36.953125 C 49.894531 -36.503906 50.859375 -36.03125 51.796875 -35.53125 C 52.742188 -35.039062 53.664062 -34.484375 54.5625 -33.859375 C 59.125 -30.546875 61.40625 -25.441406 61.40625 -18.546875 C 61.40625 -14.421875 60.617188 -10.742188 59.046875 -7.515625 C 57.484375 -4.296875 55.132812 -1.703125 52 0.265625 C 50.03125 1.609375 47.878906 2.707031 45.546875 3.5625 C 43.222656 4.414062 40.804688 5.039062 38.296875 5.4375 C 35.785156 5.84375 33.097656 6.046875 30.234375 6.046875 C 23.066406 6.046875 16.972656 4.613281 11.953125 1.75 Z M 11.953125 1.75 "/></g></g></g></svg>