<svg xmlns="http://www.w3.org/2000/svg" xmlns:xlink="http://www.w3.org/1999/xlink" width="191" zoomAndPan="magnify" viewBox="0 0 143.25 215.999994" height="288" preserveAspectRatio="xMidYMid meet" version="1.0"><defs><g/><clipPath id="73aac966d5"><path d="M 0 46.78125 L 141.921875 46.78125 L 141.921875 188.703125 L 0 188.703125 Z M 0 46.78125 " clip-rule="nonzero"/></clipPath><clipPath id="a7b3c493d9"><path d="M 70.960938 46.78125 C 31.769531 46.78125 0 78.550781 0 117.742188 C 0 156.929688 31.769531 188.703125 70.960938 188.703125 C 110.152344 188.703125 141.921875 156.929688 141.921875 117.742188 C 141.921875 78.550781 110.152344 46.78125 70.960938 46.78125 Z M 70.960938 46.78125 " clip-rule="nonzero"/></clipPath></defs><g clip-path="url(#73aac966d5)"><g clip-path="url(#a7b3c493d9)"><path fill="#ace7ef" d="M 0 46.78125 L 141.921875 46.78125 L 141.921875 188.703125 L 0 188.703125 Z M 0 46.78125 " fill-opacity="1" fill-rule="nonzero"/></g></g><g fill="#ffffff" fill-opacity="1"><g transform="translate(37.802088, 153.314165)"><g><path d="M 39.109375 4.03125 C 36.679688 3.132812 35.335938 1.613281 35.078125 -0.53125 L 35.078125 -18.140625 L 6.3125 -18.140625 C 5.59375 -18.140625 4.875 -18.226562 4.15625 -18.40625 C 3.445312 -18.582031 2.773438 -18.875 2.140625 -19.28125 C 1.515625 -19.6875 0.9375 -20.15625 0.40625 -20.6875 C 0.132812 -21.132812 -0.109375 -21.5625 -0.328125 -21.96875 C -0.554688 -22.375 -0.738281 -22.820312 -0.875 -23.3125 C -1.007812 -23.800781 -1.117188 -24.289062 -1.203125 -24.78125 C -1.296875 -25.28125 -1.34375 -25.753906 -1.34375 -26.203125 C -1.34375 -28.171875 -0.804688 -29.828125 0.265625 -31.171875 L 0.53125 -31.4375 L 38.296875 -72.703125 C 39.910156 -74.304688 42.101562 -75.109375 44.875 -75.109375 C 47.113281 -75.109375 49 -74.484375 50.53125 -73.234375 C 51.507812 -72.515625 52.222656 -71.640625 52.671875 -70.609375 C 53.117188 -69.578125 53.390625 -68.4375 53.484375 -67.1875 L 53.484375 -31.4375 L 58.1875 -31.4375 C 58.539062 -31.4375 58.828125 -31.4375 59.046875 -31.4375 C 59.273438 -31.4375 59.566406 -31.414062 59.921875 -31.375 C 60.285156 -31.332031 60.601562 -31.285156 60.875 -31.234375 C 61.144531 -31.191406 61.410156 -31.101562 61.671875 -30.96875 C 61.941406 -30.832031 62.257812 -30.675781 62.625 -30.5 C 64.144531 -29.601562 64.992188 -27.769531 65.171875 -25 L 65.171875 -24.859375 C 65.171875 -24.054688 65.082031 -23.296875 64.90625 -22.578125 C 64.726562 -21.859375 64.457031 -21.1875 64.09375 -20.5625 C 63.5625 -19.75 62.847656 -19.140625 61.953125 -18.734375 C 61.054688 -18.335938 60.160156 -18.140625 59.265625 -18.140625 L 53.484375 -18.140625 L 53.484375 -0.9375 C 53.484375 1.382812 52.179688 3.039062 49.578125 4.03125 C 48.773438 4.382812 47.945312 4.628906 47.09375 4.765625 C 46.25 4.898438 45.332031 4.96875 44.34375 4.96875 C 42.375 4.96875 40.628906 4.65625 39.109375 4.03125 Z M 17.328125 -31.4375 L 35.078125 -31.4375 L 35.078125 -51.203125 Z M 17.328125 -31.4375 "/></g></g></g></svg>