<svg xmlns="http://www.w3.org/2000/svg" xmlns:xlink="http://www.w3.org/1999/xlink" width="191" zoomAndPan="magnify" viewBox="0 0 143.25 215.999994" height="288" preserveAspectRatio="xMidYMid meet" version="1.0"><defs><g/><clipPath id="f1875307d6"><path d="M 0 46.78125 L 141.921875 46.78125 L 141.921875 188.703125 L 0 188.703125 Z M 0 46.78125 " clip-rule="nonzero"/></clipPath><clipPath id="cbb84095db"><path d="M 70.960938 46.78125 C 31.769531 46.78125 0 78.550781 0 117.742188 C 0 156.929688 31.769531 188.703125 70.960938 188.703125 C 110.152344 188.703125 141.921875 156.929688 141.921875 117.742188 C 141.921875 78.550781 110.152344 46.78125 70.960938 46.78125 Z M 70.960938 46.78125 " clip-rule="nonzero"/></clipPath></defs><g clip-path="url(#f1875307d6)"><g clip-path="url(#cbb84095db)"><path fill="#ace7ef" d="M 0 46.78125 L 141.921875 46.78125 L 141.921875 188.703125 L 0 188.703125 Z M 0 46.78125 " fill-opacity="1" fill-rule="nonzero"/></g></g><g fill="#ffffff" fill-opacity="1"><g transform="translate(37.802088, 153.314165)"><g><path d="M 10.609375 2.015625 C 5.054688 -1.023438 2.28125 -5.773438 2.28125 -12.234375 C 2.28125 -15.816406 3.359375 -18.953125 5.515625 -21.640625 C 7.835938 -24.585938 10.925781 -26.0625 14.78125 -26.0625 C 17.195312 -26.0625 19.300781 -25.390625 21.09375 -24.046875 C 23.25 -22.523438 24.328125 -20.867188 24.328125 -19.078125 C 24.328125 -18.273438 24.210938 -17.601562 23.984375 -17.0625 C 23.765625 -16.53125 23.539062 -16.195312 23.3125 -16.0625 C 23.09375 -15.925781 22.820312 -15.789062 22.5 -15.65625 C 22.1875 -15.519531 22.03125 -15.40625 22.03125 -15.3125 C 21.40625 -14.863281 20.828125 -14.238281 20.296875 -13.4375 C 20.203125 -13.164062 20.109375 -12.894531 20.015625 -12.625 C 19.929688 -12.363281 19.890625 -12.050781 19.890625 -11.6875 C 19.890625 -10.613281 20.046875 -9.765625 20.359375 -9.140625 C 20.671875 -8.515625 21.140625 -7.929688 21.765625 -7.390625 C 23.378906 -6.222656 25.800781 -5.640625 29.03125 -5.640625 C 32.789062 -5.640625 35.566406 -6.894531 37.359375 -9.40625 C 39.421875 -12.363281 40.453125 -16.304688 40.453125 -21.234375 C 40.453125 -23.554688 40.179688 -25.613281 39.640625 -27.40625 C 39.097656 -29.195312 38.335938 -30.8125 37.359375 -32.25 C 35.472656 -34.757812 32.472656 -36.015625 28.359375 -36.015625 C 27.367188 -36.015625 26.46875 -35.945312 25.65625 -35.8125 C 24.851562 -35.675781 24.09375 -35.472656 23.375 -35.203125 C 22.664062 -34.847656 21.863281 -34.398438 20.96875 -33.859375 C 20.15625 -33.410156 19.300781 -32.875 18.40625 -32.25 C 17.957031 -31.894531 17.550781 -31.601562 17.1875 -31.375 C 16.832031 -31.15625 16.5 -30.929688 16.1875 -30.703125 C 15.875 -30.484375 15.539062 -30.28125 15.1875 -30.09375 C 13.925781 -29.46875 12.671875 -29.15625 11.421875 -29.15625 C 9.453125 -29.15625 8.039062 -29.894531 7.1875 -31.375 C 6.332031 -32.851562 5.90625 -34.488281 5.90625 -36.28125 L 5.90625 -36.546875 L 6.046875 -38.15625 L 6.046875 -38.296875 L 10.21875 -70.28125 L 10.609375 -73.234375 L 50.53125 -73.234375 C 51.0625 -73.234375 51.570312 -73.1875 52.0625 -73.09375 C 52.5625 -73.007812 53.035156 -72.875 53.484375 -72.6875 C 53.929688 -72.507812 54.378906 -72.265625 54.828125 -71.953125 C 55.273438 -71.640625 55.675781 -71.304688 56.03125 -70.953125 C 57.375 -69.515625 58.046875 -67.632812 58.046875 -65.3125 C 58.046875 -62.800781 57.257812 -60.78125 55.6875 -59.25 C 54.125 -57.726562 52.085938 -56.96875 49.578125 -56.96875 L 22.703125 -56.96875 L 21.234375 -47.171875 C 24.367188 -48.148438 27.769531 -48.640625 31.4375 -48.640625 C 35.738281 -48.640625 40.085938 -47.703125 44.484375 -45.828125 C 48.867188 -43.847656 52.539062 -40.890625 55.5 -36.953125 C 58.539062 -32.828125 60.0625 -27.8125 60.0625 -21.90625 C 60.0625 -20.46875 59.972656 -19.078125 59.796875 -17.734375 C 59.617188 -16.390625 59.347656 -15.066406 58.984375 -13.765625 C 58.628906 -12.472656 58.160156 -11.222656 57.578125 -10.015625 C 56.992188 -8.804688 56.34375 -7.660156 55.625 -6.578125 C 52.757812 -2.367188 48.910156 0.804688 44.078125 2.953125 C 41.660156 3.941406 39.171875 4.703125 36.609375 5.234375 C 34.054688 5.773438 31.4375 6.046875 28.75 6.046875 C 21.582031 6.046875 15.535156 4.703125 10.609375 2.015625 Z M 10.609375 2.015625 "/></g></g></g></svg>