<svg xmlns="http://www.w3.org/2000/svg" xmlns:xlink="http://www.w3.org/1999/xlink" width="500" zoomAndPan="magnify" viewBox="0 0 375 374.999991" height="500" preserveAspectRatio="xMidYMid meet" version="1.0"><path fill="#a6acec" d="M 242.84375 175.894531 C 242.84375 176.992188 242.816406 178.085938 242.761719 179.179688 C 242.707031 180.273438 242.628906 181.367188 242.519531 182.457031 C 242.414062 183.546875 242.28125 184.636719 242.117188 185.71875 C 241.957031 186.800781 241.769531 187.882812 241.558594 188.957031 C 241.34375 190.03125 241.101562 191.101562 240.835938 192.164062 C 240.570312 193.226562 240.277344 194.28125 239.960938 195.328125 C 239.640625 196.378906 239.300781 197.417969 238.929688 198.449219 C 238.5625 199.480469 238.167969 200.503906 237.746094 201.515625 C 237.328125 202.527344 236.882812 203.527344 236.414062 204.519531 C 235.945312 205.511719 235.453125 206.488281 234.9375 207.453125 C 234.421875 208.421875 233.882812 209.375 233.320312 210.3125 C 232.753906 211.253906 232.167969 212.179688 231.558594 213.089844 C 230.953125 214 230.320312 214.894531 229.667969 215.777344 C 229.015625 216.65625 228.34375 217.519531 227.648438 218.367188 C 226.953125 219.214844 226.234375 220.042969 225.5 220.855469 C 224.765625 221.667969 224.007812 222.460938 223.234375 223.234375 C 222.460938 224.007812 221.667969 224.765625 220.855469 225.5 C 220.042969 226.234375 219.214844 226.953125 218.367188 227.648438 C 217.519531 228.34375 216.65625 229.015625 215.777344 229.667969 C 214.894531 230.320312 214 230.953125 213.089844 231.558594 C 212.179688 232.167969 211.253906 232.753906 210.3125 233.320312 C 209.375 233.882812 208.421875 234.421875 207.453125 234.9375 C 206.488281 235.453125 205.511719 235.945312 204.519531 236.414062 C 203.527344 236.882812 202.527344 237.328125 201.515625 237.746094 C 200.503906 238.167969 199.480469 238.5625 198.449219 238.929688 C 197.417969 239.300781 196.378906 239.640625 195.328125 239.960938 C 194.28125 240.277344 193.226562 240.570312 192.164062 240.835938 C 191.101562 241.101562 190.03125 241.34375 188.957031 241.558594 C 187.882812 241.769531 186.800781 241.957031 185.71875 242.117188 C 184.636719 242.28125 183.546875 242.414062 182.457031 242.519531 C 181.367188 242.628906 180.273438 242.707031 179.179688 242.761719 C 178.085938 242.816406 176.992188 242.84375 175.894531 242.84375 C 174.800781 242.84375 173.703125 242.816406 172.609375 242.761719 C 171.515625 242.707031 170.425781 242.628906 169.332031 242.519531 C 168.242188 242.414062 167.15625 242.28125 166.070312 242.117188 C 164.988281 241.957031 163.910156 241.769531 162.835938 241.558594 C 161.761719 241.34375 160.691406 241.101562 159.628906 240.835938 C 158.566406 240.570312 157.511719 240.277344 156.460938 239.960938 C 155.414062 239.640625 154.375 239.300781 153.339844 238.929688 C 152.308594 238.5625 151.289062 238.167969 150.277344 237.746094 C 149.261719 237.328125 148.261719 236.882812 147.273438 236.414062 C 146.28125 235.945312 145.304688 235.453125 144.335938 234.9375 C 143.371094 234.421875 142.417969 233.882812 141.476562 233.320312 C 140.539062 232.753906 139.613281 232.167969 138.703125 231.558594 C 137.789062 230.953125 136.894531 230.320312 136.015625 229.667969 C 135.132812 229.015625 134.269531 228.34375 133.425781 227.648438 C 132.578125 226.953125 131.746094 226.234375 130.9375 225.5 C 130.125 224.765625 129.332031 224.007812 128.554688 223.234375 C 127.78125 222.460938 127.027344 221.667969 126.289062 220.855469 C 125.554688 220.042969 124.839844 219.214844 124.144531 218.367188 C 123.449219 217.519531 122.773438 216.65625 122.121094 215.777344 C 121.46875 214.894531 120.839844 214 120.230469 213.089844 C 119.621094 212.179688 119.035156 211.253906 118.472656 210.3125 C 117.910156 209.375 117.371094 208.421875 116.851562 207.453125 C 116.335938 206.488281 115.84375 205.511719 115.375 204.519531 C 114.90625 203.527344 114.464844 202.527344 114.042969 201.515625 C 113.625 200.503906 113.230469 199.480469 112.859375 198.449219 C 112.492188 197.417969 112.148438 196.378906 111.832031 195.328125 C 111.511719 194.28125 111.21875 193.226562 110.953125 192.164062 C 110.6875 191.101562 110.449219 190.03125 110.234375 188.957031 C 110.019531 187.882812 109.832031 186.800781 109.671875 185.71875 C 109.511719 184.636719 109.378906 183.546875 109.269531 182.457031 C 109.164062 181.367188 109.082031 180.273438 109.027344 179.179688 C 108.976562 178.085938 108.949219 176.992188 108.949219 175.894531 C 108.949219 174.800781 108.976562 173.703125 109.027344 172.609375 C 109.082031 171.515625 109.164062 170.425781 109.269531 169.332031 C 109.378906 168.242188 109.511719 167.15625 109.671875 166.070312 C 109.832031 164.988281 110.019531 163.910156 110.234375 162.835938 C 110.449219 161.761719 110.6875 160.691406 110.953125 159.628906 C 111.21875 158.566406 111.511719 157.511719 111.832031 156.460938 C 112.148438 155.414062 112.492188 154.375 112.859375 153.339844 C 113.230469 152.308594 113.625 151.289062 114.042969 150.277344 C 114.464844 149.261719 114.90625 148.261719 115.375 147.273438 C 115.84375 146.28125 116.335938 145.304688 116.851562 144.335938 C 117.371094 143.371094 117.910156 142.417969 118.472656 141.476562 C 119.035156 140.539062 119.621094 139.613281 120.230469 138.703125 C 120.839844 137.789062 121.46875 136.894531 122.121094 136.015625 C 122.773438 135.132812 123.449219 134.269531 124.144531 133.425781 C 124.839844 132.578125 125.554688 131.746094 126.289062 130.9375 C 127.027344 130.125 127.78125 129.332031 128.554688 128.554688 C 129.332031 127.78125 130.125 127.027344 130.9375 126.289062 C 131.746094 125.554688 132.578125 124.839844 133.425781 124.144531 C 134.269531 123.449219 135.132812 122.773438 136.015625 122.121094 C 136.894531 121.46875 137.789062 120.839844 138.703125 120.230469 C 139.613281 119.621094 140.539062 119.035156 141.476562 118.472656 C 142.417969 117.910156 143.371094 117.371094 144.335938 116.851562 C 145.304688 116.335938 146.28125 115.84375 147.273438 115.375 C 148.261719 114.90625 149.261719 114.464844 150.277344 114.042969 C 151.289062 113.625 152.308594 113.230469 153.339844 112.859375 C 154.375 112.492188 155.414062 112.148438 156.460938 111.832031 C 157.511719 111.511719 158.566406 111.21875 159.628906 110.953125 C 160.691406 110.6875 161.761719 110.449219 162.835938 110.234375 C 163.910156 110.019531 164.988281 109.832031 166.070312 109.671875 C 167.15625 109.511719 168.242188 109.378906 169.332031 109.269531 C 170.425781 109.164062 171.515625 109.082031 172.609375 109.027344 C 173.703125 108.976562 174.800781 108.949219 175.894531 108.949219 C 176.992188 108.949219 178.085938 108.976562 179.179688 109.027344 C 180.273438 109.082031 181.367188 109.164062 182.457031 109.269531 C 183.546875 109.378906 184.636719 109.511719 185.71875 109.671875 C 186.800781 109.832031 187.882812 110.019531 188.957031 110.234375 C 190.03125 110.449219 191.101562 110.6875 192.164062 110.953125 C 193.226562 111.21875 194.28125 111.511719 195.328125 111.832031 C 196.378906 112.148438 197.417969 112.492188 198.449219 112.859375 C 199.480469 113.230469 200.503906 113.625 201.515625 114.042969 C 202.527344 114.464844 203.527344 114.90625 204.519531 115.375 C 205.511719 115.84375 206.488281 116.335938 207.453125 116.851562 C 208.421875 117.371094 209.375 117.910156 210.3125 118.472656 C 211.253906 119.035156 212.179688 119.621094 213.089844 120.230469 C 214 120.839844 214.894531 121.46875 215.777344 122.121094 C 216.65625 122.773438 217.519531 123.449219 218.367188 124.144531 C 219.214844 124.839844 220.042969 125.554688 220.855469 126.289062 C 221.667969 127.027344 222.460938 127.78125 223.234375 128.554688 C 224.007812 129.332031 224.765625 130.125 225.5 130.9375 C 226.234375 131.746094 226.953125 132.578125 227.648438 133.425781 C 228.34375 134.269531 229.015625 135.132812 229.667969 136.015625 C 230.320312 136.894531 230.953125 137.789062 231.558594 138.703125 C 232.167969 139.613281 232.753906 140.539062 233.320312 141.476562 C 233.882812 142.417969 234.421875 143.371094 234.9375 144.335938 C 235.453125 145.304688 235.945312 146.28125 236.414062 147.273438 C 236.882812 148.261719 237.328125 149.261719 237.746094 150.277344 C 238.167969 151.289062 238.5625 152.308594 238.929688 153.339844 C 239.300781 154.375 239.640625 155.414062 239.960938 156.460938 C 240.277344 157.511719 240.570312 158.566406 240.835938 159.628906 C 241.101562 160.691406 241.34375 161.761719 241.558594 162.835938 C 241.769531 163.910156 241.957031 164.988281 242.117188 166.070312 C 242.28125 167.15625 242.414062 168.242188 242.519531 169.332031 C 242.628906 170.425781 242.707031 171.515625 242.761719 172.609375 C 242.816406 173.703125 242.84375 174.800781 242.84375 175.894531 Z M 242.84375 175.894531 " fill-opacity="1" fill-rule="nonzero"/><path fill="#a6acec" d="M 187.5 0 C 83.945312 0 0 83.945312 0 187.5 C 0 291.054688 83.945312 375 187.5 375 C 291.054688 375 375 291.054688 375 187.5 C 375 83.945312 291.054688 0 187.5 0 Z M 296.527344 296.527344 C 289.558594 303.5 278.253906 303.5 271.28125 296.527344 L 234.753906 260.003906 C 218.128906 271.660156 197.894531 278.515625 176.054688 278.546875 C 120.128906 278.632812 74.160156 233.511719 73.257812 177.59375 C 72.320312 119.554688 119.554688 72.316406 177.59375 73.253906 C 233.511719 74.160156 278.632812 120.128906 278.546875 176.054688 C 278.515625 197.890625 271.660156 218.128906 260.003906 234.753906 L 296.527344 271.28125 C 303.5 278.253906 303.5 289.558594 296.527344 296.527344 Z M 296.527344 296.527344 " fill-opacity="1" fill-rule="nonzero"/></svg>