<svg xmlns="http://www.w3.org/2000/svg" xmlns:xlink="http://www.w3.org/1999/xlink" width="806" zoomAndPan="magnify" viewBox="0 0 604.5 231" height="308" preserveAspectRatio="xMidYMid meet" version="1.0"><defs><g/><clipPath id="30cda31399"><path d="M 0 49.824219 L 142.546875 49.824219 L 142.546875 192.371094 L 0 192.371094 Z M 0 49.824219 " clip-rule="nonzero"/></clipPath><clipPath id="61f7b038f0"><path d="M 71.273438 49.824219 C 31.910156 49.824219 0 81.734375 0 121.097656 C 0 160.460938 31.910156 192.371094 71.273438 192.371094 C 110.636719 192.371094 142.546875 160.460938 142.546875 121.097656 C 142.546875 81.734375 110.636719 49.824219 71.273438 49.824219 Z M 71.273438 49.824219 " clip-rule="nonzero"/></clipPath></defs><g clip-path="url(#30cda31399)"><g clip-path="url(#61f7b038f0)"><path fill="#ffffff" d="M 0 49.824219 L 142.546875 49.824219 L 142.546875 192.371094 L 0 192.371094 Z M 0 49.824219 " fill-opacity="1" fill-rule="nonzero"/></g></g><g fill="#a56cc1" fill-opacity="1"><g transform="translate(37.9686, 156.211655)"><g><path d="M 10.84375 2.0625 C 5.164062 -1.050781 2.328125 -5.90625 2.328125 -12.5 C 2.328125 -16.15625 3.425781 -19.359375 5.625 -22.109375 C 8.007812 -25.128906 11.171875 -26.640625 15.109375 -26.640625 C 17.578125 -26.640625 19.726562 -25.953125 21.5625 -24.578125 C 23.757812 -23.023438 24.859375 -21.332031 24.859375 -19.5 C 24.859375 -18.675781 24.742188 -17.988281 24.515625 -17.4375 C 24.285156 -16.894531 24.054688 -16.550781 23.828125 -16.40625 C 23.597656 -16.269531 23.320312 -16.132812 23 -16 C 22.6875 -15.863281 22.53125 -15.75 22.53125 -15.65625 C 21.882812 -15.195312 21.285156 -14.554688 20.734375 -13.734375 C 20.640625 -13.460938 20.546875 -13.1875 20.453125 -12.90625 C 20.367188 -12.632812 20.328125 -12.316406 20.328125 -11.953125 C 20.328125 -10.847656 20.484375 -9.972656 20.796875 -9.328125 C 21.117188 -8.691406 21.601562 -8.097656 22.25 -7.546875 C 23.894531 -6.359375 26.367188 -5.765625 29.671875 -5.765625 C 33.515625 -5.765625 36.351562 -7.046875 38.1875 -9.609375 C 40.289062 -12.628906 41.34375 -16.660156 41.34375 -21.703125 C 41.34375 -24.078125 41.066406 -26.179688 40.515625 -28.015625 C 39.960938 -29.847656 39.1875 -31.5 38.1875 -32.96875 C 36.257812 -35.53125 33.191406 -36.8125 28.984375 -36.8125 C 27.972656 -36.8125 27.054688 -36.738281 26.234375 -36.59375 C 25.410156 -36.457031 24.628906 -36.253906 23.890625 -35.984375 C 23.160156 -35.617188 22.335938 -35.160156 21.421875 -34.609375 C 20.597656 -34.148438 19.726562 -33.601562 18.8125 -32.96875 C 18.351562 -32.59375 17.941406 -32.289062 17.578125 -32.0625 C 17.210938 -31.832031 16.867188 -31.601562 16.546875 -31.375 C 16.222656 -31.15625 15.878906 -30.953125 15.515625 -30.765625 C 14.234375 -30.117188 12.953125 -29.796875 11.671875 -29.796875 C 9.660156 -29.796875 8.21875 -30.550781 7.34375 -32.0625 C 6.476562 -33.570312 6.046875 -35.242188 6.046875 -37.078125 L 6.046875 -37.359375 L 6.1875 -39 L 6.1875 -39.140625 L 10.4375 -71.828125 L 10.84375 -74.859375 L 51.640625 -74.859375 C 52.191406 -74.859375 52.71875 -74.8125 53.21875 -74.71875 C 53.71875 -74.625 54.195312 -74.484375 54.65625 -74.296875 C 55.113281 -74.117188 55.570312 -73.867188 56.03125 -73.546875 C 56.488281 -73.222656 56.898438 -72.878906 57.265625 -72.515625 C 58.640625 -71.046875 59.328125 -69.125 59.328125 -66.75 C 59.328125 -64.1875 58.523438 -62.125 56.921875 -60.5625 C 55.328125 -59.007812 53.25 -58.234375 50.6875 -58.234375 L 23.21875 -58.234375 L 21.703125 -48.203125 C 24.898438 -49.210938 28.378906 -49.71875 32.140625 -49.71875 C 36.535156 -49.71875 40.972656 -48.753906 45.453125 -46.828125 C 49.941406 -44.816406 53.695312 -41.796875 56.71875 -37.765625 C 59.832031 -33.554688 61.390625 -28.429688 61.390625 -22.390625 C 61.390625 -20.921875 61.296875 -19.5 61.109375 -18.125 C 60.929688 -16.75 60.660156 -15.398438 60.296875 -14.078125 C 59.929688 -12.753906 59.445312 -11.472656 58.84375 -10.234375 C 58.25 -8.992188 57.585938 -7.828125 56.859375 -6.734375 C 53.929688 -2.429688 49.992188 0.816406 45.046875 3.015625 C 42.578125 4.023438 40.035156 4.804688 37.421875 5.359375 C 34.816406 5.910156 32.140625 6.1875 29.390625 6.1875 C 22.066406 6.1875 15.882812 4.8125 10.84375 2.0625 Z M 10.84375 2.0625 "/></g></g></g><g fill="#ffffff" fill-opacity="1"><g transform="translate(157.042851, 166.663865)"><g><path d="M 19.921875 1.515625 C 19.085938 0.316406 18.671875 -1.054688 18.671875 -2.609375 L 18.671875 -2.890625 C 18.671875 -2.890625 18.671875 -3.023438 18.671875 -3.296875 C 18.671875 -3.566406 18.691406 -3.722656 18.734375 -3.765625 C 18.785156 -3.816406 18.8125 -3.976562 18.8125 -4.25 C 18.8125 -4.53125 18.832031 -4.738281 18.875 -4.875 C 18.925781 -5.007812 18.972656 -5.191406 19.015625 -5.421875 C 19.066406 -5.648438 19.132812 -5.832031 19.21875 -5.96875 C 19.3125 -6.113281 19.425781 -6.296875 19.5625 -6.515625 C 19.707031 -6.742188 19.847656 -6.925781 19.984375 -7.0625 C 20.117188 -7.207031 20.300781 -7.367188 20.53125 -7.546875 C 20.757812 -7.734375 20.96875 -7.875 21.15625 -7.96875 C 22.15625 -8.601562 23.617188 -8.921875 25.546875 -8.921875 C 27.472656 -8.921875 28.753906 -9.148438 29.390625 -9.609375 C 29.753906 -9.890625 30.003906 -10.164062 30.140625 -10.4375 C 30.285156 -10.707031 30.398438 -10.984375 30.484375 -11.265625 C 30.578125 -11.628906 30.671875 -12.0625 30.765625 -12.5625 C 30.859375 -13.070312 30.925781 -13.625 30.96875 -14.21875 C 31.019531 -14.8125 31.046875 -15.425781 31.046875 -16.0625 L 31.046875 -78.15625 L 25 -78.15625 C 24.175781 -78.15625 23.394531 -78.082031 22.65625 -77.9375 C 21.925781 -77.800781 21.351562 -77.640625 20.9375 -77.453125 C 20.53125 -77.273438 20.144531 -77.050781 19.78125 -76.78125 C 18.675781 -75.945312 17.804688 -74.660156 17.171875 -72.921875 C 16.984375 -72.378906 16.796875 -71.785156 16.609375 -71.140625 C 16.429688 -70.503906 16.25 -69.769531 16.0625 -68.9375 C 15.882812 -68.113281 15.703125 -67.222656 15.515625 -66.265625 C 15.335938 -65.304688 15.203125 -64.320312 15.109375 -63.3125 C 14.835938 -61.300781 13.601562 -59.789062 11.40625 -58.78125 C 9.9375 -58.144531 8.421875 -57.828125 6.859375 -57.828125 C 5.304688 -57.828125 3.890625 -58.28125 2.609375 -59.1875 C 0.960938 -60.382812 0.140625 -61.988281 0.140625 -64 L 0.546875 -83.375 C 0.546875 -85.289062 1.097656 -86.84375 2.203125 -88.03125 C 3.484375 -89.40625 5.3125 -90.09375 7.6875 -90.09375 L 74.859375 -90.09375 C 75.859375 -90.09375 76.789062 -89.953125 77.65625 -89.671875 C 78.53125 -89.398438 79.335938 -88.898438 80.078125 -88.171875 C 80.710938 -87.535156 81.164062 -86.800781 81.4375 -85.96875 C 81.71875 -85.144531 81.859375 -84.28125 81.859375 -83.375 L 82.40625 -64 C 82.40625 -62.988281 82.175781 -62.070312 81.71875 -61.25 C 81.257812 -60.425781 80.617188 -59.738281 79.796875 -59.1875 C 78.515625 -58.28125 77.09375 -57.828125 75.53125 -57.828125 C 74.707031 -57.828125 73.90625 -57.914062 73.125 -58.09375 C 72.351562 -58.28125 71.644531 -58.507812 71 -58.78125 C 68.894531 -59.789062 67.707031 -61.253906 67.4375 -63.171875 C 66.789062 -67.566406 66.054688 -70.863281 65.234375 -73.0625 C 64.691406 -74.707031 63.867188 -75.945312 62.765625 -76.78125 C 62.210938 -77.144531 61.476562 -77.460938 60.5625 -77.734375 C 59.644531 -78.015625 58.59375 -78.15625 57.40625 -78.15625 L 51.5 -78.15625 L 51.5 -16.0625 C 51.59375 -14.050781 51.773438 -12.453125 52.046875 -11.265625 C 52.140625 -10.984375 52.253906 -10.707031 52.390625 -10.4375 C 52.535156 -10.164062 52.789062 -9.890625 53.15625 -9.609375 C 53.789062 -9.148438 55.070312 -8.921875 57 -8.921875 L 57.828125 -8.921875 C 58.191406 -8.921875 58.507812 -8.898438 58.78125 -8.859375 C 59.050781 -8.816406 59.367188 -8.769531 59.734375 -8.71875 C 60.109375 -8.675781 60.453125 -8.5625 60.765625 -8.375 C 61.085938 -8.195312 61.429688 -7.96875 61.796875 -7.6875 C 62.992188 -6.769531 63.679688 -5.171875 63.859375 -2.890625 L 63.859375 -2.609375 C 63.859375 -1.054688 63.445312 0.316406 62.625 1.515625 C 62.257812 1.972656 61.820312 2.382812 61.3125 2.75 C 60.8125 3.113281 60.265625 3.382812 59.671875 3.5625 C 59.078125 3.75 58.503906 3.84375 57.953125 3.84375 L 57.828125 3.84375 C 54.890625 3.664062 52.09375 3.550781 49.4375 3.5 C 46.78125 3.457031 44.21875 3.4375 41.75 3.4375 C 36.351562 3.4375 30.675781 3.570312 24.71875 3.84375 L 24.578125 3.84375 C 22.566406 3.84375 21.015625 3.066406 19.921875 1.515625 Z M 19.921875 1.515625 "/></g></g></g><g fill="#ffffff" fill-opacity="1"><g transform="translate(239.446713, 166.663865)"><g><path d="M 0.828125 1.515625 C 0.0859375 0.410156 -0.28125 -0.867188 -0.28125 -2.328125 L -0.28125 -2.609375 C -0.09375 -4.992188 0.734375 -6.597656 2.203125 -7.421875 C 3.203125 -7.960938 4.570312 -8.234375 6.3125 -8.234375 C 7.875 -8.234375 8.835938 -8.375 9.203125 -8.65625 C 9.566406 -9.019531 9.75 -9.296875 9.75 -9.484375 C 9.9375 -10.390625 10.03125 -11.941406 10.03125 -14.140625 L 10.03125 -81.171875 C 10.03125 -82.265625 10.003906 -83.222656 9.953125 -84.046875 C 9.910156 -84.878906 9.890625 -85.523438 9.890625 -85.984375 L 9.34375 -86.65625 C 8.976562 -86.9375 8.015625 -87.078125 6.453125 -87.078125 C 4.710938 -87.078125 3.296875 -87.394531 2.203125 -88.03125 C 0.546875 -89.039062 -0.28125 -90.78125 -0.28125 -93.25 C -0.28125 -94.53125 0.132812 -95.722656 0.96875 -96.828125 C 1.875 -98.109375 3.195312 -98.882812 4.9375 -99.15625 C 9.25 -99.707031 12.476562 -100.347656 14.625 -101.078125 C 16.78125 -101.816406 18.128906 -102.273438 18.671875 -102.453125 C 19.585938 -102.734375 20.207031 -102.941406 20.53125 -103.078125 C 20.851562 -103.210938 21.265625 -103.328125 21.765625 -103.421875 C 22.273438 -103.515625 22.800781 -103.5625 23.34375 -103.5625 C 25 -103.5625 26.421875 -102.960938 27.609375 -101.765625 C 28.796875 -100.578125 29.390625 -99.160156 29.390625 -97.515625 L 29.390625 -60.703125 C 29.660156 -60.984375 29.863281 -61.164062 30 -61.25 C 30.144531 -61.34375 30.304688 -61.484375 30.484375 -61.671875 C 31.222656 -62.210938 31.976562 -62.710938 32.75 -63.171875 C 33.53125 -63.628906 34.332031 -64.0625 35.15625 -64.46875 C 35.976562 -64.882812 36.894531 -65.28125 37.90625 -65.65625 C 38.914062 -66.019531 39.988281 -66.316406 41.125 -66.546875 C 42.269531 -66.773438 43.4375 -66.957031 44.625 -67.09375 C 45.820312 -67.226562 47.0625 -67.296875 48.34375 -67.296875 C 55.570312 -67.296875 61.34375 -65.050781 65.65625 -60.5625 C 69.957031 -56.164062 72.109375 -50.445312 72.109375 -43.40625 L 72.109375 -14.140625 C 72.109375 -11.941406 72.15625 -10.34375 72.25 -9.34375 C 72.332031 -9.15625 72.515625 -8.925781 72.796875 -8.65625 C 73.160156 -8.375 74.117188 -8.234375 75.671875 -8.234375 L 76.5 -8.234375 C 78.144531 -8.234375 79.472656 -7.820312 80.484375 -7 C 81.492188 -6.082031 82.085938 -4.617188 82.265625 -2.609375 L 82.265625 -2.328125 C 82.265625 -0.867188 81.898438 0.410156 81.171875 1.515625 C 80.066406 3.066406 78.601562 3.84375 76.78125 3.84375 L 76.640625 3.84375 C 71.234375 3.570312 66.472656 3.4375 62.359375 3.4375 C 60.984375 3.4375 59.539062 3.457031 58.03125 3.5 C 56.519531 3.550781 54.9375 3.597656 53.28125 3.640625 C 51.632812 3.679688 49.941406 3.75 48.203125 3.84375 L 48.0625 3.84375 C 46.144531 3.84375 44.632812 3.066406 43.53125 1.515625 C 42.800781 0.410156 42.4375 -0.867188 42.4375 -2.328125 L 42.4375 -2.609375 C 42.625 -4.992188 43.445312 -6.597656 44.90625 -7.421875 C 45.914062 -7.960938 47.289062 -8.234375 49.03125 -8.234375 C 50.582031 -8.234375 51.546875 -8.375 51.921875 -8.65625 C 52.285156 -8.925781 52.46875 -9.15625 52.46875 -9.34375 C 52.46875 -9.613281 52.488281 -9.953125 52.53125 -10.359375 C 52.582031 -10.773438 52.609375 -11.328125 52.609375 -12.015625 C 52.609375 -12.703125 52.609375 -13.410156 52.609375 -14.140625 L 52.609375 -43.265625 C 52.609375 -44.910156 52.378906 -46.304688 51.921875 -47.453125 C 51.460938 -48.597656 50.773438 -49.582031 49.859375 -50.40625 C 48.847656 -51.226562 47.789062 -51.84375 46.6875 -52.25 C 45.59375 -52.664062 44.359375 -52.875 42.984375 -52.875 C 42.523438 -52.875 42.085938 -52.847656 41.671875 -52.796875 C 41.265625 -52.753906 40.851562 -52.710938 40.4375 -52.671875 C 40.03125 -52.628906 39.644531 -52.582031 39.28125 -52.53125 C 38.914062 -52.488281 38.546875 -52.394531 38.171875 -52.25 C 37.804688 -52.113281 37.460938 -52 37.140625 -51.90625 C 36.828125 -51.820312 36.488281 -51.6875 36.125 -51.5 C 35.757812 -51.320312 35.4375 -51.1875 35.15625 -51.09375 L 34.0625 -50.265625 C 31.863281 -48.796875 30.304688 -47.378906 29.390625 -46.015625 L 29.390625 -14.140625 C 29.390625 -11.941406 29.4375 -10.34375 29.53125 -9.34375 L 30.078125 -8.65625 C 30.078125 -8.65625 30.164062 -8.628906 30.34375 -8.578125 C 30.53125 -8.535156 30.851562 -8.46875 31.3125 -8.375 C 31.769531 -8.28125 32.320312 -8.234375 32.96875 -8.234375 L 33.78125 -8.234375 C 35.4375 -8.234375 36.765625 -7.820312 37.765625 -7 C 38.773438 -6.082031 39.375 -4.617188 39.5625 -2.609375 L 39.5625 -2.328125 C 39.5625 -1.960938 39.535156 -1.617188 39.484375 -1.296875 C 39.441406 -0.984375 39.375 -0.664062 39.28125 -0.34375 C 39.1875 -0.0195312 39.070312 0.296875 38.9375 0.609375 C 38.800781 0.929688 38.640625 1.234375 38.453125 1.515625 C 37.992188 2.242188 37.351562 2.8125 36.53125 3.21875 C 35.707031 3.632812 34.882812 3.84375 34.0625 3.84375 L 33.921875 3.84375 C 28.609375 3.570312 23.847656 3.4375 19.640625 3.4375 C 17.628906 3.4375 15.429688 3.457031 13.046875 3.5 C 10.671875 3.550781 8.15625 3.664062 5.5 3.84375 L 5.359375 3.84375 C 3.429688 3.84375 1.921875 3.066406 0.828125 1.515625 Z M 0.828125 1.515625 "/></g></g></g><g fill="#ffffff" fill-opacity="1"><g transform="translate(320.33984, 166.663865)"><g><path d="M 2.46875 1.640625 C 1.550781 0.453125 1.09375 -0.867188 1.09375 -2.328125 L 1.09375 -2.609375 C 1.09375 -2.609375 1.09375 -2.65625 1.09375 -2.75 C 1.28125 -5.125 2.195312 -6.722656 3.84375 -7.546875 C 4.757812 -8.003906 6.085938 -8.234375 7.828125 -8.234375 C 9.378906 -8.234375 10.34375 -8.375 10.71875 -8.65625 C 10.988281 -8.925781 11.171875 -9.15625 11.265625 -9.34375 C 11.359375 -10.34375 11.40625 -11.941406 11.40625 -14.140625 L 11.40625 -45.59375 C 11.40625 -47.789062 11.359375 -49.394531 11.265625 -50.40625 C 11.171875 -50.59375 10.988281 -50.820312 10.71875 -51.09375 C 10.34375 -51.363281 9.378906 -51.5 7.828125 -51.5 C 6.085938 -51.5 4.671875 -51.820312 3.578125 -52.46875 C 1.921875 -53.46875 1.09375 -55.207031 1.09375 -57.6875 C 1.09375 -58.96875 1.503906 -60.15625 2.328125 -61.25 C 2.785156 -61.894531 3.378906 -62.421875 4.109375 -62.828125 C 4.847656 -63.242188 5.582031 -63.5 6.3125 -63.59375 C 11.8125 -64.320312 16.484375 -65.421875 20.328125 -66.890625 C 21.148438 -67.253906 21.878906 -67.503906 22.515625 -67.640625 C 23.160156 -67.773438 23.757812 -67.890625 24.3125 -67.984375 L 25.140625 -67.984375 C 26.785156 -67.984375 28.132812 -67.363281 29.1875 -66.125 C 30.238281 -64.894531 30.765625 -63.5 30.765625 -61.9375 L 30.765625 -14.140625 C 30.765625 -11.941406 30.859375 -10.390625 31.046875 -9.484375 C 31.046875 -9.296875 31.226562 -9.019531 31.59375 -8.65625 C 31.59375 -8.65625 31.679688 -8.628906 31.859375 -8.578125 C 32.046875 -8.535156 32.367188 -8.46875 32.828125 -8.375 C 33.285156 -8.28125 33.832031 -8.234375 34.46875 -8.234375 L 35.296875 -8.234375 C 36.765625 -8.234375 38 -7.867188 39 -7.140625 C 40.195312 -6.222656 40.882812 -4.710938 41.0625 -2.609375 L 41.0625 -2.328125 C 41.0625 -1.960938 41.035156 -1.617188 40.984375 -1.296875 C 40.941406 -0.984375 40.875 -0.664062 40.78125 -0.34375 C 40.695312 -0.0195312 40.582031 0.296875 40.4375 0.609375 C 40.300781 0.929688 40.144531 1.234375 39.96875 1.515625 C 39.601562 1.972656 39.164062 2.382812 38.65625 2.75 C 38.15625 3.113281 37.628906 3.382812 37.078125 3.5625 C 36.535156 3.75 35.988281 3.84375 35.4375 3.84375 L 35.296875 3.84375 C 29.984375 3.570312 25.222656 3.4375 21.015625 3.4375 C 18.992188 3.4375 16.789062 3.457031 14.40625 3.5 C 12.03125 3.550781 9.515625 3.664062 6.859375 3.84375 L 6.734375 3.84375 C 4.992188 3.84375 3.570312 3.109375 2.46875 1.640625 Z M 11.546875 -79.65625 C 9.066406 -81.945312 7.828125 -84.785156 7.828125 -88.171875 C 7.828125 -88.992188 7.941406 -89.796875 8.171875 -90.578125 C 8.398438 -91.359375 8.695312 -92.113281 9.0625 -92.84375 C 9.4375 -93.570312 9.894531 -94.234375 10.4375 -94.828125 C 10.988281 -95.429688 11.632812 -96.003906 12.375 -96.546875 C 13.65625 -97.554688 15.09375 -98.335938 16.6875 -98.890625 C 18.289062 -99.441406 19.914062 -99.71875 21.5625 -99.71875 C 22.570312 -99.71875 23.582031 -99.578125 24.59375 -99.296875 C 25.601562 -99.023438 26.539062 -98.632812 27.40625 -98.125 C 28.28125 -97.625 29.035156 -96.960938 29.671875 -96.140625 C 31.773438 -93.941406 32.828125 -91.148438 32.828125 -87.765625 C 32.828125 -84.554688 31.59375 -81.804688 29.125 -79.515625 C 26.738281 -77.410156 23.804688 -76.359375 20.328125 -76.359375 C 16.847656 -76.359375 13.921875 -77.457031 11.546875 -79.65625 Z M 11.546875 -79.65625 "/></g></g></g><g fill="#ffffff" fill-opacity="1"><g transform="translate(360.992399, 166.663865)"><g><path d="M 2.46875 1.640625 C 1.550781 0.453125 1.09375 -0.867188 1.09375 -2.328125 L 1.09375 -2.609375 C 1.09375 -2.609375 1.09375 -2.65625 1.09375 -2.75 C 1.28125 -5.125 2.195312 -6.722656 3.84375 -7.546875 C 4.757812 -8.003906 6.085938 -8.234375 7.828125 -8.234375 C 9.378906 -8.234375 10.34375 -8.375 10.71875 -8.65625 C 10.988281 -8.925781 11.171875 -9.15625 11.265625 -9.34375 C 11.359375 -10.34375 11.40625 -11.941406 11.40625 -14.140625 L 11.40625 -45.59375 C 11.40625 -47.789062 11.359375 -49.394531 11.265625 -50.40625 C 11.171875 -50.59375 10.988281 -50.820312 10.71875 -51.09375 C 10.34375 -51.363281 9.378906 -51.5 7.828125 -51.5 C 6.085938 -51.5 4.671875 -51.820312 3.578125 -52.46875 C 1.921875 -53.46875 1.09375 -55.207031 1.09375 -57.6875 C 1.09375 -58.96875 1.503906 -60.15625 2.328125 -61.25 C 3.242188 -62.53125 4.570312 -63.3125 6.3125 -63.59375 C 9.0625 -63.957031 11.625 -64.4375 14 -65.03125 C 16.382812 -65.625 18.445312 -66.242188 20.1875 -66.890625 L 20.328125 -67.03125 L 20.46875 -67.03125 C 22.113281 -67.476562 23.300781 -67.796875 24.03125 -67.984375 L 25 -67.984375 C 26.644531 -67.984375 27.992188 -67.363281 29.046875 -66.125 C 30.097656 -64.894531 30.625 -63.5 30.625 -61.9375 L 30.625 -60.5625 C 30.71875 -60.65625 30.832031 -60.75 30.96875 -60.84375 C 31.101562 -60.9375 31.21875 -61.023438 31.3125 -61.109375 C 31.40625 -61.203125 31.492188 -61.296875 31.578125 -61.390625 C 31.671875 -61.484375 31.765625 -61.578125 31.859375 -61.671875 C 32.597656 -62.210938 33.351562 -62.710938 34.125 -63.171875 C 34.90625 -63.628906 35.707031 -64.0625 36.53125 -64.46875 C 37.351562 -64.882812 38.269531 -65.28125 39.28125 -65.65625 C 40.75 -66.195312 42.375 -66.601562 44.15625 -66.875 C 45.9375 -67.15625 47.789062 -67.296875 49.71875 -67.296875 C 56.945312 -67.296875 62.71875 -65.050781 67.03125 -60.5625 C 71.332031 -56.164062 73.484375 -50.445312 73.484375 -43.40625 L 73.484375 -14.140625 C 73.484375 -13.046875 73.503906 -12.085938 73.546875 -11.265625 C 73.585938 -10.441406 73.65625 -9.847656 73.75 -9.484375 L 74.296875 -8.65625 C 74.671875 -8.375 75.632812 -8.234375 77.1875 -8.234375 L 78.015625 -8.234375 C 79.472656 -8.234375 80.707031 -7.867188 81.71875 -7.140625 C 82.269531 -6.679688 82.703125 -6.128906 83.015625 -5.484375 C 83.335938 -4.847656 83.519531 -4.390625 83.5625 -4.109375 C 83.613281 -3.835938 83.6875 -3.335938 83.78125 -2.609375 L 83.78125 -2.328125 C 83.78125 -0.867188 83.320312 0.453125 82.40625 1.640625 C 81.3125 3.109375 79.894531 3.84375 78.15625 3.84375 L 78.015625 3.84375 C 75.359375 3.664062 72.835938 3.550781 70.453125 3.5 C 68.078125 3.457031 65.835938 3.4375 63.734375 3.4375 C 61.710938 3.4375 59.507812 3.457031 57.125 3.5 C 54.75 3.550781 52.234375 3.664062 49.578125 3.84375 L 49.4375 3.84375 C 47.695312 3.84375 46.234375 3.109375 45.046875 1.640625 C 44.222656 0.453125 43.8125 -0.867188 43.8125 -2.328125 L 43.8125 -2.609375 C 44 -4.992188 44.820312 -6.597656 46.28125 -7.421875 C 47.289062 -7.960938 48.664062 -8.234375 50.40625 -8.234375 C 51.039062 -8.234375 51.585938 -8.28125 52.046875 -8.375 C 52.503906 -8.46875 52.828125 -8.535156 53.015625 -8.578125 C 53.203125 -8.628906 53.296875 -8.65625 53.296875 -8.65625 C 53.660156 -9.019531 53.84375 -9.296875 53.84375 -9.484375 C 54.019531 -10.390625 54.109375 -11.941406 54.109375 -14.140625 L 54.109375 -43.265625 C 54.109375 -46.378906 53.191406 -48.710938 51.359375 -50.265625 C 49.347656 -52.003906 47.015625 -52.875 44.359375 -52.875 C 42.804688 -52.875 41.390625 -52.710938 40.109375 -52.390625 C 38.828125 -52.078125 37.632812 -51.644531 36.53125 -51.09375 C 36.351562 -51 36.21875 -50.90625 36.125 -50.8125 C 36.03125 -50.726562 35.914062 -50.660156 35.78125 -50.609375 C 35.644531 -50.566406 35.53125 -50.5 35.4375 -50.40625 C 33.238281 -48.9375 31.679688 -47.425781 30.765625 -45.875 L 30.765625 -14.140625 C 30.765625 -11.941406 30.859375 -10.390625 31.046875 -9.484375 C 31.046875 -9.296875 31.226562 -9.019531 31.59375 -8.65625 C 31.59375 -8.65625 31.679688 -8.628906 31.859375 -8.578125 C 32.046875 -8.535156 32.367188 -8.46875 32.828125 -8.375 C 33.285156 -8.28125 33.832031 -8.234375 34.46875 -8.234375 L 35.296875 -8.234375 C 36.765625 -8.234375 38 -7.867188 39 -7.140625 C 40.195312 -6.222656 40.882812 -4.710938 41.0625 -2.609375 L 41.0625 -2.328125 C 41.0625 -1.960938 41.035156 -1.617188 40.984375 -1.296875 C 40.941406 -0.984375 40.875 -0.664062 40.78125 -0.34375 C 40.695312 -0.0195312 40.582031 0.296875 40.4375 0.609375 C 40.300781 0.929688 40.144531 1.234375 39.96875 1.515625 C 39.601562 1.972656 39.164062 2.382812 38.65625 2.75 C 38.15625 3.113281 37.628906 3.382812 37.078125 3.5625 C 36.535156 3.75 35.988281 3.84375 35.4375 3.84375 L 35.296875 3.84375 C 29.984375 3.570312 25.222656 3.4375 21.015625 3.4375 C 18.992188 3.4375 16.789062 3.457031 14.40625 3.5 C 12.03125 3.550781 9.515625 3.664062 6.859375 3.84375 L 6.734375 3.84375 C 4.992188 3.84375 3.570312 3.109375 2.46875 1.640625 Z M 2.46875 1.640625 "/></g></g></g><g fill="#ffffff" fill-opacity="1"><g transform="translate(443.258933, 166.663865)"><g><path d="M 24.03125 3.296875 C 24.21875 3.566406 24.351562 3.789062 24.4375 3.96875 C 24.53125 4.15625 24.644531 4.457031 24.78125 4.875 C 24.925781 5.289062 25 5.679688 25 6.046875 C 25 6.867188 24.90625 7.53125 24.71875 8.03125 C 24.539062 8.539062 24.335938 8.863281 24.109375 9 C 23.878906 9.132812 23.625 9.269531 23.34375 9.40625 C 23.070312 9.539062 22.890625 9.65625 22.796875 9.75 C 22.242188 10.300781 21.785156 10.988281 21.421875 11.8125 C 21.054688 12.445312 20.875 13.269531 20.875 14.28125 C 20.875 19.039062 25.773438 21.421875 35.578125 21.421875 C 36.304688 21.421875 37.015625 21.394531 37.703125 21.34375 C 38.390625 21.300781 39.050781 21.28125 39.6875 21.28125 C 43.988281 20.914062 47.332031 19.957031 49.71875 18.40625 C 52.46875 16.570312 53.84375 13.914062 53.84375 10.4375 C 53.84375 10.070312 53.816406 9.726562 53.765625 9.40625 C 53.722656 9.082031 53.65625 8.785156 53.5625 8.515625 C 53.46875 8.242188 53.351562 7.992188 53.21875 7.765625 C 53.082031 7.535156 52.921875 7.347656 52.734375 7.203125 C 52.554688 7.066406 52.328125 6.910156 52.046875 6.734375 C 51.222656 6.179688 50.238281 5.695312 49.09375 5.28125 C 47.957031 4.875 46.703125 4.578125 45.328125 4.390625 C 44.503906 4.296875 43.632812 4.226562 42.71875 4.1875 C 41.800781 4.144531 40.835938 4.078125 39.828125 3.984375 C 38.816406 3.890625 37.71875 3.816406 36.53125 3.765625 C 35.34375 3.722656 34.0625 3.703125 32.6875 3.703125 C 29.394531 3.617188 26.507812 3.484375 24.03125 3.296875 Z M 9.484375 -0.6875 C 9.109375 -0.957031 8.738281 -1.234375 8.375 -1.515625 C 5.625 -3.796875 4.25 -7.222656 4.25 -11.796875 C 4.25 -16.378906 5.851562 -20.226562 9.0625 -23.34375 C 10.070312 -24.257812 11.21875 -25.085938 12.5 -25.828125 C 11.582031 -26.460938 10.753906 -27.164062 10.015625 -27.9375 C 9.285156 -28.71875 8.601562 -29.523438 7.96875 -30.359375 C 5.40625 -34.109375 4.125 -38.316406 4.125 -42.984375 C 4.125 -47.660156 5.453125 -51.875 8.109375 -55.625 C 9.390625 -57.550781 10.941406 -59.242188 12.765625 -60.703125 C 14.597656 -62.171875 16.660156 -63.410156 18.953125 -64.421875 C 23.441406 -66.429688 28.476562 -67.4375 34.0625 -67.4375 C 40.5625 -67.4375 45.78125 -66.566406 49.71875 -64.828125 L 55.21875 -65.921875 L 67.4375 -68.265625 L 68.390625 -68.265625 C 70.222656 -68.265625 71.644531 -67.550781 72.65625 -66.125 C 73.664062 -64.707031 74.171875 -63.175781 74.171875 -61.53125 C 74.171875 -61.070312 74.144531 -60.660156 74.09375 -60.296875 C 74.050781 -59.929688 74.003906 -59.539062 73.953125 -59.125 C 73.910156 -58.71875 73.820312 -58.304688 73.6875 -57.890625 C 73.550781 -57.472656 73.4375 -57.082031 73.34375 -56.71875 C 73.0625 -56.082031 72.804688 -55.554688 72.578125 -55.140625 C 72.359375 -54.734375 71.878906 -54.253906 71.140625 -53.703125 C 70.410156 -53.148438 69.539062 -52.875 68.53125 -52.875 L 61.53125 -53.15625 C 61.800781 -52.695312 62.03125 -52.238281 62.21875 -51.78125 C 63.5 -48.757812 64.140625 -45.875 64.140625 -43.125 C 64.140625 -38.175781 62.71875 -33.78125 59.875 -29.9375 C 58.414062 -28.019531 56.769531 -26.347656 54.9375 -24.921875 C 53.101562 -23.503906 51.085938 -22.289062 48.890625 -21.28125 C 44.492188 -19.363281 39.914062 -18.40625 35.15625 -18.40625 L 29.109375 -18.40625 C 25.722656 -18.40625 23.113281 -18.175781 21.28125 -17.71875 C 20.820312 -17.53125 20.410156 -17.394531 20.046875 -17.3125 C 19.316406 -16.9375 18.953125 -16.476562 18.953125 -15.9375 C 18.953125 -15.382812 19.046875 -15.0625 19.234375 -14.96875 C 19.867188 -14.507812 21.332031 -14.191406 23.625 -14.015625 L 42.4375 -13.328125 C 52.695312 -12.953125 60.207031 -11.253906 64.96875 -8.234375 C 70.269531 -4.847656 72.921875 0.226562 72.921875 7 C 72.921875 15.425781 69.03125 22.019531 61.25 26.78125 C 58.59375 28.332031 55.6875 29.613281 52.53125 30.625 C 49.375 31.632812 45.921875 32.367188 42.171875 32.828125 C 40.703125 33.003906 39.164062 33.140625 37.5625 33.234375 C 35.957031 33.328125 34.332031 33.375 32.6875 33.375 C 22.519531 33.375 14.578125 31.75 8.859375 28.5 C 3.140625 25.25 0.28125 20.234375 0.28125 13.453125 C 0.28125 9.515625 1.5625 6.082031 4.125 3.15625 C 4.851562 2.238281 5.675781 1.457031 6.59375 0.8125 C 7.507812 0.175781 8.472656 -0.320312 9.484375 -0.6875 Z M 41.75 -32.6875 C 42.476562 -33.414062 43.070312 -34.285156 43.53125 -35.296875 C 43.988281 -36.304688 44.332031 -37.472656 44.5625 -38.796875 C 44.789062 -40.128906 44.90625 -41.570312 44.90625 -43.125 C 44.90625 -47.25 43.851562 -50.5 41.75 -52.875 C 39.738281 -55.164062 37.128906 -56.3125 33.921875 -56.3125 C 32.828125 -56.3125 31.820312 -56.195312 30.90625 -55.96875 C 29.988281 -55.738281 29.160156 -55.367188 28.421875 -54.859375 C 27.691406 -54.359375 26.984375 -53.742188 26.296875 -53.015625 C 25.609375 -52.285156 25.035156 -51.460938 24.578125 -50.546875 C 24.117188 -49.628906 23.773438 -48.570312 23.546875 -47.375 C 23.328125 -46.1875 23.21875 -44.863281 23.21875 -43.40625 C 23.21875 -38.726562 24.269531 -35.15625 26.375 -32.6875 C 28.382812 -30.394531 30.945312 -29.25 34.0625 -29.25 C 37.269531 -29.25 39.832031 -30.394531 41.75 -32.6875 Z M 41.75 -32.6875 "/></g></g></g><g fill="#ffffff" fill-opacity="1"><g transform="translate(515.08764, 166.663865)"><g><path d="M 10.4375 0.828125 C 4.664062 -2.378906 1.78125 -7.003906 1.78125 -13.046875 C 1.78125 -16.617188 2.925781 -19.550781 5.21875 -21.84375 C 6.3125 -23.03125 7.613281 -23.921875 9.125 -24.515625 C 10.644531 -25.109375 12.226562 -25.40625 13.875 -25.40625 C 14.425781 -25.40625 14.953125 -25.359375 15.453125 -25.265625 C 15.953125 -25.179688 16.453125 -25.066406 16.953125 -24.921875 C 17.460938 -24.785156 17.945312 -24.601562 18.40625 -24.375 C 18.863281 -24.144531 19.320312 -23.847656 19.78125 -23.484375 C 19.875 -23.484375 20.078125 -23.367188 20.390625 -23.140625 C 20.710938 -22.910156 20.941406 -22.726562 21.078125 -22.59375 C 21.210938 -22.457031 21.414062 -22.25 21.6875 -21.96875 C 21.96875 -21.695312 22.175781 -21.421875 22.3125 -21.140625 C 22.457031 -20.867188 22.597656 -20.523438 22.734375 -20.109375 C 22.867188 -19.703125 22.9375 -19.269531 22.9375 -18.8125 C 22.9375 -17.988281 22.84375 -17.300781 22.65625 -16.75 C 22.476562 -16.207031 22.273438 -15.863281 22.046875 -15.71875 C 21.816406 -15.582031 21.515625 -15.398438 21.140625 -15.171875 C 20.773438 -14.941406 20.550781 -14.785156 20.46875 -14.703125 C 20.007812 -14.242188 19.78125 -13.460938 19.78125 -12.359375 C 19.78125 -10.890625 20.507812 -9.703125 21.96875 -8.796875 C 23.894531 -7.503906 26.921875 -6.859375 31.046875 -6.859375 C 34.523438 -6.859375 37.175781 -7.546875 39 -8.921875 C 40.5625 -10.117188 41.34375 -11.859375 41.34375 -14.140625 C 41.34375 -14.878906 41.25 -15.5 41.0625 -16 C 40.882812 -16.5 40.609375 -16.976562 40.234375 -17.4375 C 39.691406 -17.988281 39.097656 -18.46875 38.453125 -18.875 C 37.816406 -19.289062 37.085938 -19.679688 36.265625 -20.046875 C 35.347656 -20.410156 34.175781 -20.820312 32.75 -21.28125 C 31.332031 -21.738281 29.753906 -22.242188 28.015625 -22.796875 C 25.722656 -23.441406 23.613281 -24.109375 21.6875 -24.796875 C 19.769531 -25.484375 18.082031 -26.144531 16.625 -26.78125 C 14.882812 -27.507812 13.300781 -28.445312 11.875 -29.59375 C 10.457031 -30.738281 9.15625 -32.09375 7.96875 -33.65625 C 5.488281 -36.757812 4.25 -40.785156 4.25 -45.734375 C 4.25 -50.398438 5.71875 -54.429688 8.65625 -57.828125 C 10.03125 -59.472656 11.609375 -60.890625 13.390625 -62.078125 C 15.171875 -63.265625 17.160156 -64.269531 19.359375 -65.09375 C 20.734375 -65.550781 22.128906 -65.941406 23.546875 -66.265625 C 24.972656 -66.585938 26.414062 -66.84375 27.875 -67.03125 C 29.4375 -67.207031 30.992188 -67.296875 32.546875 -67.296875 C 38.585938 -67.296875 43.851562 -66.015625 48.34375 -63.453125 C 53.46875 -60.429688 56.03125 -56.21875 56.03125 -50.8125 C 56.03125 -47.519531 54.976562 -44.679688 52.875 -42.296875 C 50.675781 -39.734375 47.835938 -38.453125 44.359375 -38.453125 C 42.160156 -38.453125 40.191406 -39.09375 38.453125 -40.375 C 38.359375 -40.375 38.148438 -40.488281 37.828125 -40.71875 C 37.515625 -40.945312 37.289062 -41.128906 37.15625 -41.265625 C 37.019531 -41.410156 36.8125 -41.617188 36.53125 -41.890625 C 36.257812 -42.160156 36.050781 -42.429688 35.90625 -42.703125 C 35.769531 -42.984375 35.632812 -43.328125 35.5 -43.734375 C 35.363281 -44.148438 35.296875 -44.585938 35.296875 -45.046875 C 35.296875 -45.867188 35.410156 -46.554688 35.640625 -47.109375 C 35.867188 -47.660156 36.097656 -48.003906 36.328125 -48.140625 C 36.554688 -48.273438 36.804688 -48.390625 37.078125 -48.484375 C 37.359375 -48.578125 37.539062 -48.664062 37.625 -48.75 C 38.082031 -49.207031 38.539062 -49.757812 39 -50.40625 C 39.1875 -50.59375 39.28125 -50.910156 39.28125 -51.359375 C 39.1875 -52.648438 38.5 -53.660156 37.21875 -54.390625 C 35.476562 -55.398438 33.375 -55.90625 30.90625 -55.90625 L 29.25 -55.765625 C 28.15625 -55.671875 27.148438 -55.484375 26.234375 -55.203125 C 25.316406 -54.929688 24.445312 -54.519531 23.625 -53.96875 C 22.0625 -53.0625 21.28125 -51.828125 21.28125 -50.265625 C 21.28125 -49.253906 21.375 -48.425781 21.5625 -47.78125 C 21.75 -47.144531 21.976562 -46.597656 22.25 -46.140625 C 22.519531 -45.867188 22.789062 -45.59375 23.0625 -45.3125 C 23.34375 -45.039062 23.710938 -44.769531 24.171875 -44.5 C 24.628906 -44.226562 25.179688 -43.953125 25.828125 -43.671875 C 26.828125 -43.210938 28.171875 -42.6875 29.859375 -42.09375 C 31.554688 -41.5 33.597656 -40.835938 35.984375 -40.109375 C 37.171875 -39.648438 38.3125 -39.234375 39.40625 -38.859375 C 40.507812 -38.492188 41.566406 -38.128906 42.578125 -37.765625 C 43.585938 -37.398438 44.523438 -37.035156 45.390625 -36.671875 C 46.265625 -36.304688 47.066406 -35.941406 47.796875 -35.578125 C 51.085938 -34.015625 53.695312 -31.859375 55.625 -29.109375 C 57.632812 -26.273438 58.640625 -22.660156 58.640625 -18.265625 C 58.640625 -16.066406 58.296875 -13.9375 57.609375 -11.875 C 56.921875 -9.820312 55.9375 -7.878906 54.65625 -6.046875 C 53.375 -4.210938 51.863281 -2.609375 50.125 -1.234375 C 48.382812 0.140625 46.414062 1.285156 44.21875 2.203125 C 41.019531 3.660156 37.5 4.570312 33.65625 4.9375 C 32.457031 5.03125 31.21875 5.078125 29.9375 5.078125 C 21.96875 5.078125 15.46875 3.660156 10.4375 0.828125 Z M 10.4375 0.828125 "/></g></g></g></svg>