<svg xmlns="http://www.w3.org/2000/svg" xmlns:xlink="http://www.w3.org/1999/xlink" width="900" zoomAndPan="magnify" viewBox="0 0 675 225" height="300" preserveAspectRatio="xMidYMid meet" version="1.0"><defs><g/><clipPath id="96c2d84d44"><path d="M 5.316406 35.640625 L 172.050781 35.640625 L 172.050781 202.375 L 5.316406 202.375 Z M 5.316406 35.640625 " clip-rule="nonzero"/></clipPath><clipPath id="549d4ee620"><path d="M 88.683594 35.640625 C 42.640625 35.640625 5.316406 72.96875 5.316406 119.007812 C 5.316406 165.050781 42.640625 202.375 88.683594 202.375 C 134.722656 202.375 172.050781 165.050781 172.050781 119.007812 C 172.050781 72.96875 134.722656 35.640625 88.683594 35.640625 Z M 88.683594 35.640625 " clip-rule="nonzero"/></clipPath></defs><g clip-path="url(#96c2d84d44)"><g clip-path="url(#549d4ee620)"><path fill="#ffffff" d="M 5.316406 35.640625 L 172.050781 35.640625 L 172.050781 202.375 L 5.316406 202.375 Z M 5.316406 35.640625 " fill-opacity="1" fill-rule="nonzero"/></g></g><g fill="#cb6ce6" fill-opacity="1"><g transform="translate(49.725778, 159.806084)"><g><path d="M 12.6875 2.40625 C 6.050781 -1.226562 2.734375 -6.90625 2.734375 -14.625 C 2.734375 -18.90625 4.019531 -22.648438 6.59375 -25.859375 C 9.375 -29.398438 13.066406 -31.171875 17.671875 -31.171875 C 20.554688 -31.171875 23.070312 -30.363281 25.21875 -28.75 C 27.789062 -26.9375 29.078125 -24.957031 29.078125 -22.8125 C 29.078125 -21.84375 28.941406 -21.035156 28.671875 -20.390625 C 28.398438 -19.753906 28.128906 -19.351562 27.859375 -19.1875 C 27.597656 -19.03125 27.28125 -18.867188 26.90625 -18.703125 C 26.53125 -18.546875 26.34375 -18.414062 26.34375 -18.3125 C 25.59375 -17.78125 24.894531 -17.03125 24.25 -16.0625 C 24.144531 -15.738281 24.039062 -15.414062 23.9375 -15.09375 C 23.832031 -14.78125 23.78125 -14.40625 23.78125 -13.96875 C 23.78125 -12.6875 23.96875 -11.671875 24.34375 -10.921875 C 24.71875 -10.171875 25.28125 -9.472656 26.03125 -8.828125 C 27.957031 -7.441406 30.847656 -6.75 34.703125 -6.75 C 39.191406 -6.75 42.507812 -8.25 44.65625 -11.25 C 47.125 -14.78125 48.359375 -19.488281 48.359375 -25.375 C 48.359375 -28.164062 48.035156 -30.628906 47.390625 -32.765625 C 46.742188 -34.910156 45.832031 -36.835938 44.65625 -38.546875 C 42.40625 -41.546875 38.816406 -43.046875 33.890625 -43.046875 C 32.710938 -43.046875 31.640625 -42.960938 30.671875 -42.796875 C 29.710938 -42.640625 28.804688 -42.40625 27.953125 -42.09375 C 27.097656 -41.65625 26.132812 -41.117188 25.0625 -40.484375 C 24.09375 -39.941406 23.070312 -39.296875 22 -38.546875 C 21.46875 -38.117188 20.988281 -37.769531 20.5625 -37.5 C 20.132812 -37.238281 19.734375 -36.972656 19.359375 -36.703125 C 18.984375 -36.441406 18.582031 -36.203125 18.15625 -35.984375 C 16.65625 -35.234375 15.15625 -34.859375 13.65625 -34.859375 C 11.300781 -34.859375 9.613281 -35.738281 8.59375 -37.5 C 7.570312 -39.269531 7.0625 -41.226562 7.0625 -43.375 L 7.0625 -43.6875 L 7.234375 -45.625 L 7.234375 -45.78125 L 12.203125 -84.015625 L 12.6875 -87.546875 L 60.40625 -87.546875 C 61.039062 -87.546875 61.648438 -87.492188 62.234375 -87.390625 C 62.828125 -87.285156 63.390625 -87.125 63.921875 -86.90625 C 64.460938 -86.6875 65 -86.390625 65.53125 -86.015625 C 66.070312 -85.640625 66.554688 -85.238281 66.984375 -84.8125 C 68.585938 -83.101562 69.390625 -80.859375 69.390625 -78.078125 C 69.390625 -75.078125 68.453125 -72.664062 66.578125 -70.84375 C 64.710938 -69.019531 62.28125 -68.109375 59.28125 -68.109375 L 27.140625 -68.109375 L 25.375 -56.390625 C 29.125 -57.566406 33.195312 -58.15625 37.59375 -58.15625 C 42.726562 -58.15625 47.921875 -57.03125 53.171875 -54.78125 C 58.421875 -52.425781 62.8125 -48.890625 66.34375 -44.171875 C 69.988281 -39.242188 71.8125 -33.25 71.8125 -26.1875 C 71.8125 -24.46875 71.703125 -22.804688 71.484375 -21.203125 C 71.265625 -19.597656 70.941406 -18.019531 70.515625 -16.46875 C 70.085938 -14.914062 69.523438 -13.414062 68.828125 -11.96875 C 68.140625 -10.519531 67.363281 -9.15625 66.5 -7.875 C 63.070312 -2.84375 58.46875 0.957031 52.6875 3.53125 C 49.800781 4.707031 46.832031 5.617188 43.78125 6.265625 C 40.726562 6.910156 37.59375 7.234375 34.375 7.234375 C 25.8125 7.234375 18.582031 5.625 12.6875 2.40625 Z M 12.6875 2.40625 "/></g></g></g><g fill="#ffffff" fill-opacity="1"><g transform="translate(179.722829, 172.825031)"><g><path d="M 23.296875 1.765625 C 22.328125 0.367188 21.84375 -1.234375 21.84375 -3.046875 L 21.84375 -3.375 C 21.84375 -3.375 21.84375 -3.535156 21.84375 -3.859375 C 21.84375 -4.179688 21.867188 -4.367188 21.921875 -4.421875 C 21.972656 -4.472656 22 -4.660156 22 -4.984375 C 22 -5.304688 22.023438 -5.546875 22.078125 -5.703125 C 22.140625 -5.859375 22.195312 -6.070312 22.25 -6.34375 C 22.300781 -6.613281 22.378906 -6.828125 22.484375 -6.984375 C 22.597656 -7.148438 22.734375 -7.363281 22.890625 -7.625 C 23.046875 -7.894531 23.203125 -8.109375 23.359375 -8.265625 C 23.523438 -8.429688 23.742188 -8.617188 24.015625 -8.828125 C 24.285156 -9.046875 24.523438 -9.207031 24.734375 -9.3125 C 25.910156 -10.0625 27.625 -10.4375 29.875 -10.4375 C 32.125 -10.4375 33.625 -10.707031 34.375 -11.25 C 34.800781 -11.570312 35.09375 -11.890625 35.25 -12.203125 C 35.414062 -12.523438 35.550781 -12.847656 35.65625 -13.171875 C 35.769531 -13.597656 35.878906 -14.101562 35.984375 -14.6875 C 36.085938 -15.28125 36.164062 -15.925781 36.21875 -16.625 C 36.28125 -17.320312 36.3125 -18.046875 36.3125 -18.796875 L 36.3125 -91.40625 L 29.234375 -91.40625 C 28.273438 -91.40625 27.363281 -91.320312 26.5 -91.15625 C 25.644531 -91 24.976562 -90.8125 24.5 -90.59375 C 24.019531 -90.382812 23.5625 -90.117188 23.125 -89.796875 C 21.84375 -88.835938 20.828125 -87.335938 20.078125 -85.296875 C 19.867188 -84.660156 19.65625 -83.96875 19.4375 -83.21875 C 19.21875 -82.46875 19 -81.609375 18.78125 -80.640625 C 18.570312 -79.679688 18.359375 -78.640625 18.140625 -77.515625 C 17.929688 -76.390625 17.773438 -75.238281 17.671875 -74.0625 C 17.347656 -71.695312 15.898438 -69.925781 13.328125 -68.75 C 11.617188 -68 9.851562 -67.625 8.03125 -67.625 C 6.207031 -67.625 4.546875 -68.160156 3.046875 -69.234375 C 1.117188 -70.628906 0.15625 -72.503906 0.15625 -74.859375 L 0.640625 -97.515625 C 0.640625 -99.753906 1.28125 -101.570312 2.5625 -102.96875 C 4.0625 -104.570312 6.207031 -105.375 9 -105.375 L 87.546875 -105.375 C 88.722656 -105.375 89.820312 -105.210938 90.84375 -104.890625 C 91.863281 -104.578125 92.800781 -103.988281 93.65625 -103.125 C 94.40625 -102.375 94.9375 -101.515625 95.25 -100.546875 C 95.570312 -99.585938 95.734375 -98.578125 95.734375 -97.515625 L 96.390625 -74.859375 C 96.390625 -73.679688 96.117188 -72.609375 95.578125 -71.640625 C 95.046875 -70.679688 94.296875 -69.878906 93.328125 -69.234375 C 91.828125 -68.160156 90.171875 -67.625 88.359375 -67.625 C 87.390625 -67.625 86.445312 -67.726562 85.53125 -67.9375 C 84.625 -68.15625 83.796875 -68.425781 83.046875 -68.75 C 80.585938 -69.925781 79.195312 -71.640625 78.875 -73.890625 C 78.125 -79.035156 77.265625 -82.890625 76.296875 -85.453125 C 75.660156 -87.390625 74.695312 -88.835938 73.40625 -89.796875 C 72.769531 -90.222656 71.914062 -90.597656 70.84375 -90.921875 C 69.769531 -91.242188 68.535156 -91.40625 67.140625 -91.40625 L 60.234375 -91.40625 L 60.234375 -18.796875 C 60.347656 -16.441406 60.566406 -14.566406 60.890625 -13.171875 C 60.992188 -12.847656 61.125 -12.523438 61.28125 -12.203125 C 61.445312 -11.890625 61.742188 -11.570312 62.171875 -11.25 C 62.921875 -10.707031 64.421875 -10.4375 66.671875 -10.4375 L 67.625 -10.4375 C 68.050781 -10.4375 68.425781 -10.410156 68.75 -10.359375 C 69.070312 -10.304688 69.445312 -10.253906 69.875 -10.203125 C 70.300781 -10.148438 70.703125 -10.015625 71.078125 -9.796875 C 71.453125 -9.585938 71.851562 -9.320312 72.28125 -9 C 73.675781 -7.925781 74.484375 -6.050781 74.703125 -3.375 L 74.703125 -3.046875 C 74.703125 -1.234375 74.21875 0.367188 73.25 1.765625 C 72.820312 2.296875 72.3125 2.773438 71.71875 3.203125 C 71.132812 3.640625 70.492188 3.960938 69.796875 4.171875 C 69.097656 4.390625 68.429688 4.5 67.796875 4.5 L 67.625 4.5 C 64.195312 4.28125 60.929688 4.144531 57.828125 4.09375 C 54.722656 4.039062 51.722656 4.015625 48.828125 4.015625 C 42.515625 4.015625 35.878906 4.175781 28.921875 4.5 L 28.75 4.5 C 26.394531 4.5 24.578125 3.585938 23.296875 1.765625 Z M 23.296875 1.765625 "/></g></g></g><g fill="#ffffff" fill-opacity="1"><g transform="translate(276.108912, 172.825031)"><g><path d="M 0.96875 1.765625 C 0.101562 0.484375 -0.328125 -1.015625 -0.328125 -2.734375 L -0.328125 -3.046875 C -0.109375 -5.835938 0.851562 -7.710938 2.5625 -8.671875 C 3.75 -9.316406 5.359375 -9.640625 7.390625 -9.640625 C 9.210938 -9.640625 10.335938 -9.800781 10.765625 -10.125 C 11.191406 -10.550781 11.40625 -10.867188 11.40625 -11.078125 C 11.625 -12.148438 11.734375 -13.972656 11.734375 -16.546875 L 11.734375 -94.9375 C 11.734375 -96.21875 11.703125 -97.34375 11.640625 -98.3125 C 11.585938 -99.28125 11.5625 -100.03125 11.5625 -100.5625 L 10.921875 -101.359375 C 10.492188 -101.679688 9.367188 -101.84375 7.546875 -101.84375 C 5.515625 -101.84375 3.851562 -102.21875 2.5625 -102.96875 C 0.632812 -104.144531 -0.328125 -106.179688 -0.328125 -109.078125 C -0.328125 -110.578125 0.15625 -111.96875 1.125 -113.25 C 2.195312 -114.75 3.75 -115.660156 5.78125 -115.984375 C 10.8125 -116.628906 14.585938 -117.378906 17.109375 -118.234375 C 19.628906 -119.085938 21.207031 -119.625 21.84375 -119.84375 C 22.914062 -120.15625 23.640625 -120.390625 24.015625 -120.546875 C 24.390625 -120.710938 24.867188 -120.847656 25.453125 -120.953125 C 26.046875 -121.066406 26.664062 -121.125 27.3125 -121.125 C 29.238281 -121.125 30.894531 -120.425781 32.28125 -119.03125 C 33.675781 -117.644531 34.375 -115.988281 34.375 -114.0625 L 34.375 -71 C 34.695312 -71.320312 34.9375 -71.535156 35.09375 -71.640625 C 35.257812 -71.753906 35.445312 -71.914062 35.65625 -72.125 C 36.519531 -72.769531 37.40625 -73.359375 38.3125 -73.890625 C 39.21875 -74.429688 40.148438 -74.941406 41.109375 -75.421875 C 42.078125 -75.898438 43.15625 -76.351562 44.34375 -76.78125 C 45.519531 -77.207031 46.773438 -77.554688 48.109375 -77.828125 C 49.453125 -78.097656 50.816406 -78.3125 52.203125 -78.46875 C 53.597656 -78.632812 55.046875 -78.71875 56.546875 -78.71875 C 65.003906 -78.71875 71.75 -76.09375 76.78125 -70.84375 C 81.820312 -65.695312 84.34375 -59.003906 84.34375 -50.765625 L 84.34375 -16.546875 C 84.34375 -13.972656 84.394531 -12.097656 84.5 -10.921875 C 84.601562 -10.710938 84.816406 -10.445312 85.140625 -10.125 C 85.566406 -9.800781 86.691406 -9.640625 88.515625 -9.640625 L 89.484375 -9.640625 C 91.410156 -9.640625 92.960938 -9.15625 94.140625 -8.1875 C 95.316406 -7.125 96.007812 -5.410156 96.21875 -3.046875 L 96.21875 -2.734375 C 96.21875 -1.015625 95.789062 0.484375 94.9375 1.765625 C 93.65625 3.585938 91.941406 4.5 89.796875 4.5 L 89.640625 4.5 C 83.316406 4.175781 77.75 4.015625 72.9375 4.015625 C 71.320312 4.015625 69.628906 4.039062 67.859375 4.09375 C 66.097656 4.144531 64.253906 4.195312 62.328125 4.25 C 60.398438 4.3125 58.421875 4.394531 56.390625 4.5 L 56.21875 4.5 C 53.96875 4.5 52.203125 3.585938 50.921875 1.765625 C 50.066406 0.484375 49.640625 -1.015625 49.640625 -2.734375 L 49.640625 -3.046875 C 49.847656 -5.835938 50.8125 -7.710938 52.53125 -8.671875 C 53.707031 -9.316406 55.3125 -9.640625 57.34375 -9.640625 C 59.164062 -9.640625 60.289062 -9.800781 60.71875 -10.125 C 61.144531 -10.445312 61.359375 -10.710938 61.359375 -10.921875 C 61.359375 -11.242188 61.382812 -11.644531 61.4375 -12.125 C 61.5 -12.601562 61.53125 -13.242188 61.53125 -14.046875 C 61.53125 -14.859375 61.53125 -15.691406 61.53125 -16.546875 L 61.53125 -50.609375 C 61.53125 -52.535156 61.257812 -54.164062 60.71875 -55.5 C 60.1875 -56.84375 59.382812 -57.992188 58.3125 -58.953125 C 57.132812 -59.921875 55.898438 -60.644531 54.609375 -61.125 C 53.328125 -61.601562 51.882812 -61.84375 50.28125 -61.84375 C 49.75 -61.84375 49.238281 -61.816406 48.75 -61.765625 C 48.269531 -61.710938 47.785156 -61.660156 47.296875 -61.609375 C 46.816406 -61.554688 46.363281 -61.5 45.9375 -61.4375 C 45.507812 -61.382812 45.082031 -61.28125 44.65625 -61.125 C 44.226562 -60.96875 43.828125 -60.832031 43.453125 -60.71875 C 43.078125 -60.613281 42.675781 -60.453125 42.25 -60.234375 C 41.820312 -60.023438 41.445312 -59.867188 41.125 -59.765625 L 39.84375 -58.796875 C 37.269531 -57.078125 35.445312 -55.414062 34.375 -53.8125 L 34.375 -16.546875 C 34.375 -13.972656 34.425781 -12.097656 34.53125 -10.921875 L 35.1875 -10.125 C 35.1875 -10.125 35.289062 -10.09375 35.5 -10.03125 C 35.71875 -9.976562 36.09375 -9.898438 36.625 -9.796875 C 37.15625 -9.691406 37.796875 -9.640625 38.546875 -9.640625 L 39.515625 -9.640625 C 41.441406 -9.640625 42.992188 -9.15625 44.171875 -8.1875 C 45.347656 -7.125 46.046875 -5.410156 46.265625 -3.046875 L 46.265625 -2.734375 C 46.265625 -2.304688 46.238281 -1.90625 46.1875 -1.53125 C 46.132812 -1.15625 46.050781 -0.78125 45.9375 -0.40625 C 45.832031 -0.03125 45.695312 0.34375 45.53125 0.71875 C 45.375 1.09375 45.191406 1.441406 44.984375 1.765625 C 44.441406 2.617188 43.6875 3.285156 42.71875 3.765625 C 41.757812 4.253906 40.800781 4.5 39.84375 4.5 L 39.671875 4.5 C 33.460938 4.175781 27.894531 4.015625 22.96875 4.015625 C 20.613281 4.015625 18.039062 4.039062 15.25 4.09375 C 12.46875 4.144531 9.523438 4.28125 6.421875 4.5 L 6.265625 4.5 C 4.015625 4.5 2.25 3.585938 0.96875 1.765625 Z M 0.96875 1.765625 "/></g></g></g><g fill="#ffffff" fill-opacity="1"><g transform="translate(370.727921, 172.825031)"><g><path d="M 2.890625 1.921875 C 1.816406 0.535156 1.28125 -1.015625 1.28125 -2.734375 L 1.28125 -3.046875 C 1.28125 -3.046875 1.28125 -3.101562 1.28125 -3.21875 C 1.5 -6 2.570312 -7.867188 4.5 -8.828125 C 5.570312 -9.367188 7.125 -9.640625 9.15625 -9.640625 C 10.976562 -9.640625 12.101562 -9.800781 12.53125 -10.125 C 12.851562 -10.445312 13.066406 -10.710938 13.171875 -10.921875 C 13.273438 -12.097656 13.328125 -13.972656 13.328125 -16.546875 L 13.328125 -53.328125 C 13.328125 -55.898438 13.273438 -57.773438 13.171875 -58.953125 C 13.066406 -59.171875 12.851562 -59.441406 12.53125 -59.765625 C 12.101562 -60.078125 10.976562 -60.234375 9.15625 -60.234375 C 7.125 -60.234375 5.460938 -60.609375 4.171875 -61.359375 C 2.242188 -62.535156 1.28125 -64.570312 1.28125 -67.46875 C 1.28125 -68.96875 1.765625 -70.359375 2.734375 -71.640625 C 3.265625 -72.390625 3.957031 -73.003906 4.8125 -73.484375 C 5.675781 -73.972656 6.535156 -74.269531 7.390625 -74.375 C 13.816406 -75.226562 19.28125 -76.515625 23.78125 -78.234375 C 24.738281 -78.660156 25.59375 -78.953125 26.34375 -79.109375 C 27.09375 -79.273438 27.789062 -79.410156 28.4375 -79.515625 L 29.390625 -79.515625 C 31.316406 -79.515625 32.894531 -78.789062 34.125 -77.34375 C 35.363281 -75.90625 35.984375 -74.273438 35.984375 -72.453125 L 35.984375 -16.546875 C 35.984375 -13.972656 36.09375 -12.148438 36.3125 -11.078125 C 36.3125 -10.867188 36.523438 -10.550781 36.953125 -10.125 C 36.953125 -10.125 37.054688 -10.09375 37.265625 -10.03125 C 37.484375 -9.976562 37.859375 -9.898438 38.390625 -9.796875 C 38.929688 -9.691406 39.578125 -9.640625 40.328125 -9.640625 L 41.28125 -9.640625 C 43 -9.640625 44.445312 -9.210938 45.625 -8.359375 C 47.007812 -7.285156 47.8125 -5.515625 48.03125 -3.046875 L 48.03125 -2.734375 C 48.03125 -2.304688 48.003906 -1.90625 47.953125 -1.53125 C 47.898438 -1.15625 47.816406 -0.78125 47.703125 -0.40625 C 47.597656 -0.03125 47.460938 0.34375 47.296875 0.71875 C 47.140625 1.09375 46.957031 1.441406 46.75 1.765625 C 46.320312 2.296875 45.8125 2.773438 45.21875 3.203125 C 44.632812 3.640625 44.019531 3.960938 43.375 4.171875 C 42.726562 4.390625 42.082031 4.5 41.4375 4.5 L 41.28125 4.5 C 35.070312 4.175781 29.503906 4.015625 24.578125 4.015625 C 22.222656 4.015625 19.648438 4.039062 16.859375 4.09375 C 14.078125 4.144531 11.132812 4.28125 8.03125 4.5 L 7.875 4.5 C 5.832031 4.5 4.171875 3.640625 2.890625 1.921875 Z M 13.484375 -93.171875 C 10.597656 -95.847656 9.15625 -99.164062 9.15625 -103.125 C 9.15625 -104.09375 9.285156 -105.03125 9.546875 -105.9375 C 9.816406 -106.851562 10.164062 -107.738281 10.59375 -108.59375 C 11.019531 -109.445312 11.554688 -110.222656 12.203125 -110.921875 C 12.847656 -111.617188 13.597656 -112.289062 14.453125 -112.9375 C 15.953125 -114.113281 17.640625 -115.019531 19.515625 -115.65625 C 21.390625 -116.300781 23.289062 -116.625 25.21875 -116.625 C 26.394531 -116.625 27.570312 -116.460938 28.75 -116.140625 C 29.925781 -115.816406 31.023438 -115.359375 32.046875 -114.765625 C 33.066406 -114.179688 33.953125 -113.410156 34.703125 -112.453125 C 37.160156 -109.878906 38.390625 -106.613281 38.390625 -102.65625 C 38.390625 -98.90625 36.941406 -95.691406 34.046875 -93.015625 C 31.265625 -90.546875 27.835938 -89.3125 23.765625 -89.3125 C 19.703125 -89.3125 16.273438 -90.597656 13.484375 -93.171875 Z M 13.484375 -93.171875 "/></g></g></g><g fill="#ffffff" fill-opacity="1"><g transform="translate(418.278374, 172.825031)"><g><path d="M 2.890625 1.921875 C 1.816406 0.535156 1.28125 -1.015625 1.28125 -2.734375 L 1.28125 -3.046875 C 1.28125 -3.046875 1.28125 -3.101562 1.28125 -3.21875 C 1.5 -6 2.570312 -7.867188 4.5 -8.828125 C 5.570312 -9.367188 7.125 -9.640625 9.15625 -9.640625 C 10.976562 -9.640625 12.101562 -9.800781 12.53125 -10.125 C 12.851562 -10.445312 13.066406 -10.710938 13.171875 -10.921875 C 13.273438 -12.097656 13.328125 -13.972656 13.328125 -16.546875 L 13.328125 -53.328125 C 13.328125 -55.898438 13.273438 -57.773438 13.171875 -58.953125 C 13.066406 -59.171875 12.851562 -59.441406 12.53125 -59.765625 C 12.101562 -60.078125 10.976562 -60.234375 9.15625 -60.234375 C 7.125 -60.234375 5.460938 -60.609375 4.171875 -61.359375 C 2.242188 -62.535156 1.28125 -64.570312 1.28125 -67.46875 C 1.28125 -68.96875 1.765625 -70.359375 2.734375 -71.640625 C 3.804688 -73.140625 5.359375 -74.050781 7.390625 -74.375 C 10.597656 -74.800781 13.59375 -75.363281 16.375 -76.0625 C 19.164062 -76.757812 21.578125 -77.484375 23.609375 -78.234375 L 23.78125 -78.390625 L 23.9375 -78.390625 C 25.863281 -78.929688 27.253906 -79.304688 28.109375 -79.515625 L 29.234375 -79.515625 C 31.160156 -79.515625 32.738281 -78.789062 33.96875 -77.34375 C 35.207031 -75.90625 35.828125 -74.273438 35.828125 -72.453125 L 35.828125 -70.84375 C 35.929688 -70.945312 36.0625 -71.050781 36.21875 -71.15625 C 36.382812 -71.269531 36.519531 -71.378906 36.625 -71.484375 C 36.726562 -71.585938 36.832031 -71.691406 36.9375 -71.796875 C 37.050781 -71.910156 37.160156 -72.019531 37.265625 -72.125 C 38.117188 -72.769531 39 -73.359375 39.90625 -73.890625 C 40.820312 -74.429688 41.757812 -74.941406 42.71875 -75.421875 C 43.6875 -75.898438 44.757812 -76.351562 45.9375 -76.78125 C 47.65625 -77.425781 49.554688 -77.910156 51.640625 -78.234375 C 53.734375 -78.554688 55.90625 -78.71875 58.15625 -78.71875 C 66.613281 -78.71875 73.359375 -76.09375 78.390625 -70.84375 C 83.421875 -65.695312 85.9375 -59.003906 85.9375 -50.765625 L 85.9375 -16.546875 C 85.9375 -15.265625 85.960938 -14.140625 86.015625 -13.171875 C 86.078125 -12.210938 86.160156 -11.515625 86.265625 -11.078125 L 86.90625 -10.125 C 87.332031 -9.800781 88.457031 -9.640625 90.28125 -9.640625 L 91.25 -9.640625 C 92.957031 -9.640625 94.398438 -9.210938 95.578125 -8.359375 C 96.222656 -7.816406 96.734375 -7.171875 97.109375 -6.421875 C 97.484375 -5.671875 97.695312 -5.132812 97.75 -4.8125 C 97.800781 -4.5 97.878906 -3.910156 97.984375 -3.046875 L 97.984375 -2.734375 C 97.984375 -1.015625 97.453125 0.535156 96.390625 1.921875 C 95.097656 3.640625 93.4375 4.5 91.40625 4.5 L 91.25 4.5 C 88.132812 4.28125 85.1875 4.144531 82.40625 4.09375 C 79.625 4.039062 77 4.015625 74.53125 4.015625 C 72.175781 4.015625 69.609375 4.039062 66.828125 4.09375 C 64.046875 4.144531 61.097656 4.28125 57.984375 4.5 L 57.828125 4.5 C 55.796875 4.5 54.082031 3.640625 52.6875 1.921875 C 51.726562 0.535156 51.25 -1.015625 51.25 -2.734375 L 51.25 -3.046875 C 51.457031 -5.835938 52.421875 -7.710938 54.140625 -8.671875 C 55.316406 -9.316406 56.921875 -9.640625 58.953125 -9.640625 C 59.703125 -9.640625 60.34375 -9.691406 60.875 -9.796875 C 61.414062 -9.898438 61.789062 -9.976562 62 -10.03125 C 62.21875 -10.09375 62.328125 -10.125 62.328125 -10.125 C 62.753906 -10.550781 62.96875 -10.867188 62.96875 -11.078125 C 63.1875 -12.148438 63.296875 -13.972656 63.296875 -16.546875 L 63.296875 -50.609375 C 63.296875 -54.242188 62.222656 -56.972656 60.078125 -58.796875 C 57.722656 -60.828125 54.992188 -61.84375 51.890625 -61.84375 C 50.066406 -61.84375 48.40625 -61.65625 46.90625 -61.28125 C 45.40625 -60.90625 44.015625 -60.398438 42.734375 -59.765625 C 42.515625 -59.648438 42.351562 -59.539062 42.25 -59.4375 C 42.144531 -59.332031 42.007812 -59.25 41.84375 -59.1875 C 41.6875 -59.132812 41.550781 -59.054688 41.4375 -58.953125 C 38.875 -57.242188 37.054688 -55.476562 35.984375 -53.65625 L 35.984375 -16.546875 C 35.984375 -13.972656 36.09375 -12.148438 36.3125 -11.078125 C 36.3125 -10.867188 36.523438 -10.550781 36.953125 -10.125 C 36.953125 -10.125 37.054688 -10.09375 37.265625 -10.03125 C 37.484375 -9.976562 37.859375 -9.898438 38.390625 -9.796875 C 38.929688 -9.691406 39.578125 -9.640625 40.328125 -9.640625 L 41.28125 -9.640625 C 43 -9.640625 44.445312 -9.210938 45.625 -8.359375 C 47.007812 -7.285156 47.8125 -5.515625 48.03125 -3.046875 L 48.03125 -2.734375 C 48.03125 -2.304688 48.003906 -1.90625 47.953125 -1.53125 C 47.898438 -1.15625 47.816406 -0.78125 47.703125 -0.40625 C 47.597656 -0.03125 47.460938 0.34375 47.296875 0.71875 C 47.140625 1.09375 46.957031 1.441406 46.75 1.765625 C 46.320312 2.296875 45.8125 2.773438 45.21875 3.203125 C 44.632812 3.640625 44.019531 3.960938 43.375 4.171875 C 42.726562 4.390625 42.082031 4.5 41.4375 4.5 L 41.28125 4.5 C 35.070312 4.175781 29.503906 4.015625 24.578125 4.015625 C 22.222656 4.015625 19.648438 4.039062 16.859375 4.09375 C 14.078125 4.144531 11.132812 4.28125 8.03125 4.5 L 7.875 4.5 C 5.832031 4.5 4.171875 3.640625 2.890625 1.921875 Z M 2.890625 1.921875 "/></g></g></g><g fill="#ffffff" fill-opacity="1"><g transform="translate(514.503829, 172.825031)"><g><path d="M 28.109375 3.859375 C 28.328125 4.179688 28.488281 4.445312 28.59375 4.65625 C 28.695312 4.875 28.828125 5.222656 28.984375 5.703125 C 29.148438 6.179688 29.234375 6.632812 29.234375 7.0625 C 29.234375 8.03125 29.125 8.804688 28.90625 9.390625 C 28.695312 9.984375 28.457031 10.359375 28.1875 10.515625 C 27.925781 10.679688 27.632812 10.84375 27.3125 11 C 26.988281 11.164062 26.773438 11.300781 26.671875 11.40625 C 26.023438 12.050781 25.488281 12.851562 25.0625 13.8125 C 24.632812 14.5625 24.421875 15.523438 24.421875 16.703125 C 24.421875 22.273438 30.148438 25.0625 41.609375 25.0625 C 42.460938 25.0625 43.289062 25.035156 44.09375 24.984375 C 44.894531 24.929688 45.671875 24.90625 46.421875 24.90625 C 51.453125 24.46875 55.363281 23.34375 58.15625 21.53125 C 61.363281 19.382812 62.96875 16.273438 62.96875 12.203125 C 62.96875 11.773438 62.941406 11.375 62.890625 11 C 62.835938 10.625 62.753906 10.273438 62.640625 9.953125 C 62.535156 9.640625 62.398438 9.347656 62.234375 9.078125 C 62.078125 8.804688 61.890625 8.585938 61.671875 8.421875 C 61.460938 8.265625 61.203125 8.082031 60.890625 7.875 C 59.921875 7.226562 58.765625 6.664062 57.421875 6.1875 C 56.085938 5.707031 54.617188 5.359375 53.015625 5.140625 C 52.046875 5.035156 51.023438 4.953125 49.953125 4.890625 C 48.890625 4.835938 47.765625 4.757812 46.578125 4.65625 C 45.398438 4.550781 44.113281 4.472656 42.71875 4.421875 C 41.332031 4.367188 39.835938 4.34375 38.234375 4.34375 C 34.378906 4.226562 31.003906 4.066406 28.109375 3.859375 Z M 11.078125 -0.796875 C 10.648438 -1.117188 10.222656 -1.441406 9.796875 -1.765625 C 6.585938 -4.441406 4.984375 -8.457031 4.984375 -13.8125 C 4.984375 -19.164062 6.859375 -23.664062 10.609375 -27.3125 C 11.785156 -28.382812 13.125 -29.347656 14.625 -30.203125 C 13.550781 -30.953125 12.582031 -31.78125 11.71875 -32.6875 C 10.863281 -33.601562 10.0625 -34.539062 9.3125 -35.5 C 6.3125 -39.894531 4.8125 -44.820312 4.8125 -50.28125 C 4.8125 -55.738281 6.367188 -60.664062 9.484375 -65.0625 C 10.984375 -67.3125 12.800781 -69.289062 14.9375 -71 C 17.082031 -72.71875 19.492188 -74.164062 22.171875 -75.34375 C 27.421875 -77.695312 33.3125 -78.875 39.84375 -78.875 C 47.445312 -78.875 53.550781 -77.859375 58.15625 -75.828125 L 64.578125 -77.109375 L 78.875 -79.84375 L 80 -79.84375 C 82.144531 -79.84375 83.804688 -79.007812 84.984375 -77.34375 C 86.160156 -75.6875 86.75 -73.894531 86.75 -71.96875 C 86.75 -71.425781 86.71875 -70.941406 86.65625 -70.515625 C 86.601562 -70.085938 86.550781 -69.632812 86.5 -69.15625 C 86.445312 -68.675781 86.335938 -68.191406 86.171875 -67.703125 C 86.015625 -67.222656 85.882812 -66.769531 85.78125 -66.34375 C 85.457031 -65.59375 85.160156 -64.976562 84.890625 -64.5 C 84.628906 -64.019531 84.066406 -63.457031 83.203125 -62.8125 C 82.347656 -62.164062 81.332031 -61.84375 80.15625 -61.84375 L 71.96875 -62.171875 C 72.289062 -61.628906 72.554688 -61.09375 72.765625 -60.5625 C 74.265625 -57.03125 75.015625 -53.65625 75.015625 -50.4375 C 75.015625 -44.65625 73.359375 -39.515625 70.046875 -35.015625 C 68.328125 -32.765625 66.394531 -30.8125 64.25 -29.15625 C 62.113281 -27.5 59.757812 -26.082031 57.1875 -24.90625 C 52.050781 -22.65625 46.695312 -21.53125 41.125 -21.53125 L 34.0625 -21.53125 C 30.09375 -21.53125 27.039062 -21.257812 24.90625 -20.71875 C 24.363281 -20.507812 23.878906 -20.347656 23.453125 -20.234375 C 22.597656 -19.804688 22.171875 -19.273438 22.171875 -18.640625 C 22.171875 -17.992188 22.273438 -17.617188 22.484375 -17.515625 C 23.234375 -16.972656 24.945312 -16.597656 27.625 -16.390625 L 49.640625 -15.578125 C 61.628906 -15.148438 70.410156 -13.171875 75.984375 -9.640625 C 82.191406 -5.671875 85.296875 0.269531 85.296875 8.1875 C 85.296875 18.039062 80.742188 25.753906 71.640625 31.328125 C 68.535156 33.148438 65.132812 34.648438 61.4375 35.828125 C 57.75 37.003906 53.707031 37.859375 49.3125 38.390625 C 47.601562 38.609375 45.8125 38.769531 43.9375 38.875 C 42.0625 38.976562 40.160156 39.03125 38.234375 39.03125 C 26.347656 39.03125 17.054688 37.128906 10.359375 33.328125 C 3.671875 29.523438 0.328125 23.664062 0.328125 15.75 C 0.328125 11.132812 1.820312 7.113281 4.8125 3.6875 C 5.675781 2.625 6.640625 1.71875 7.703125 0.96875 C 8.773438 0.21875 9.898438 -0.367188 11.078125 -0.796875 Z M 48.828125 -38.234375 C 49.691406 -39.085938 50.390625 -40.101562 50.921875 -41.28125 C 51.453125 -42.457031 51.851562 -43.820312 52.125 -45.375 C 52.394531 -46.925781 52.53125 -48.613281 52.53125 -50.4375 C 52.53125 -55.257812 51.296875 -59.0625 48.828125 -61.84375 C 46.472656 -64.519531 43.421875 -65.859375 39.671875 -65.859375 C 38.390625 -65.859375 37.210938 -65.722656 36.140625 -65.453125 C 35.066406 -65.191406 34.101562 -64.765625 33.25 -64.171875 C 32.394531 -63.585938 31.566406 -62.863281 30.765625 -62 C 29.960938 -61.144531 29.289062 -60.179688 28.75 -59.109375 C 28.21875 -58.046875 27.816406 -56.816406 27.546875 -55.421875 C 27.273438 -54.023438 27.140625 -52.472656 27.140625 -50.765625 C 27.140625 -45.296875 28.375 -41.117188 30.84375 -38.234375 C 33.195312 -35.554688 36.195312 -34.21875 39.84375 -34.21875 C 43.59375 -34.21875 46.585938 -35.554688 48.828125 -38.234375 Z M 48.828125 -38.234375 "/></g></g></g><g fill="#ffffff" fill-opacity="1"><g transform="translate(598.520374, 172.825031)"><g><path d="M 12.203125 0.96875 C 5.460938 -2.78125 2.09375 -8.191406 2.09375 -15.265625 C 2.09375 -19.441406 3.429688 -22.867188 6.109375 -25.546875 C 7.390625 -26.929688 8.910156 -27.972656 10.671875 -28.671875 C 12.441406 -29.367188 14.289062 -29.71875 16.21875 -29.71875 C 16.863281 -29.71875 17.476562 -29.660156 18.0625 -29.546875 C 18.65625 -29.441406 19.242188 -29.3125 19.828125 -29.15625 C 20.421875 -29 20.984375 -28.785156 21.515625 -28.515625 C 22.054688 -28.242188 22.59375 -27.894531 23.125 -27.46875 C 23.238281 -27.46875 23.484375 -27.332031 23.859375 -27.0625 C 24.234375 -26.800781 24.5 -26.585938 24.65625 -26.421875 C 24.820312 -26.265625 25.0625 -26.023438 25.375 -25.703125 C 25.695312 -25.378906 25.9375 -25.054688 26.09375 -24.734375 C 26.257812 -24.410156 26.421875 -24.007812 26.578125 -23.53125 C 26.742188 -23.050781 26.828125 -22.539062 26.828125 -22 C 26.828125 -21.039062 26.71875 -20.238281 26.5 -19.59375 C 26.289062 -18.957031 26.050781 -18.554688 25.78125 -18.390625 C 25.507812 -18.234375 25.160156 -18.019531 24.734375 -17.75 C 24.304688 -17.476562 24.039062 -17.289062 23.9375 -17.1875 C 23.394531 -16.65625 23.125 -15.742188 23.125 -14.453125 C 23.125 -12.742188 23.984375 -11.351562 25.703125 -10.28125 C 27.953125 -8.78125 31.488281 -8.03125 36.3125 -8.03125 C 40.375 -8.03125 43.476562 -8.832031 45.625 -10.4375 C 47.445312 -11.832031 48.359375 -13.867188 48.359375 -16.546875 C 48.359375 -17.398438 48.25 -18.117188 48.03125 -18.703125 C 47.8125 -19.296875 47.488281 -19.863281 47.0625 -20.40625 C 46.425781 -21.039062 45.734375 -21.597656 44.984375 -22.078125 C 44.234375 -22.566406 43.375 -23.023438 42.40625 -23.453125 C 41.332031 -23.878906 39.96875 -24.359375 38.3125 -24.890625 C 36.65625 -25.429688 34.804688 -26.023438 32.765625 -26.671875 C 30.085938 -27.421875 27.625 -28.195312 25.375 -29 C 23.125 -29.800781 21.144531 -30.578125 19.4375 -31.328125 C 17.40625 -32.179688 15.554688 -33.273438 13.890625 -34.609375 C 12.234375 -35.953125 10.707031 -37.535156 9.3125 -39.359375 C 6.425781 -42.992188 4.984375 -47.707031 4.984375 -53.5 C 4.984375 -58.957031 6.695312 -63.664062 10.125 -67.625 C 11.726562 -69.550781 13.570312 -71.210938 15.65625 -72.609375 C 17.75 -74.003906 20.082031 -75.179688 22.65625 -76.140625 C 24.257812 -76.679688 25.890625 -77.140625 27.546875 -77.515625 C 29.210938 -77.890625 30.898438 -78.179688 32.609375 -78.390625 C 34.429688 -78.609375 36.253906 -78.71875 38.078125 -78.71875 C 45.140625 -78.71875 51.296875 -77.21875 56.546875 -74.21875 C 62.546875 -70.6875 65.546875 -65.757812 65.546875 -59.4375 C 65.546875 -55.582031 64.3125 -52.265625 61.84375 -49.484375 C 59.269531 -46.484375 55.953125 -44.984375 51.890625 -44.984375 C 49.316406 -44.984375 47.015625 -45.734375 44.984375 -47.234375 C 44.867188 -47.234375 44.625 -47.363281 44.25 -47.625 C 43.875 -47.894531 43.609375 -48.109375 43.453125 -48.265625 C 43.296875 -48.429688 43.054688 -48.675781 42.734375 -49 C 42.410156 -49.320312 42.164062 -49.640625 42 -49.953125 C 41.84375 -50.273438 41.679688 -50.675781 41.515625 -51.15625 C 41.359375 -51.644531 41.28125 -52.15625 41.28125 -52.6875 C 41.28125 -53.65625 41.414062 -54.457031 41.6875 -55.09375 C 41.957031 -55.738281 42.222656 -56.140625 42.484375 -56.296875 C 42.753906 -56.460938 43.050781 -56.597656 43.375 -56.703125 C 43.695312 -56.804688 43.910156 -56.914062 44.015625 -57.03125 C 44.546875 -57.5625 45.082031 -58.203125 45.625 -58.953125 C 45.832031 -59.171875 45.9375 -59.546875 45.9375 -60.078125 C 45.832031 -61.578125 45.03125 -62.753906 43.53125 -63.609375 C 41.5 -64.785156 39.035156 -65.375 36.140625 -65.375 L 34.21875 -65.21875 C 32.925781 -65.113281 31.742188 -64.898438 30.671875 -64.578125 C 29.609375 -64.253906 28.59375 -63.769531 27.625 -63.125 C 25.8125 -62.0625 24.90625 -60.617188 24.90625 -58.796875 C 24.90625 -57.617188 25.007812 -56.65625 25.21875 -55.90625 C 25.4375 -55.15625 25.707031 -54.507812 26.03125 -53.96875 C 26.34375 -53.65625 26.660156 -53.335938 26.984375 -53.015625 C 27.304688 -52.691406 27.734375 -52.367188 28.265625 -52.046875 C 28.804688 -51.722656 29.453125 -51.398438 30.203125 -51.078125 C 31.378906 -50.546875 32.957031 -49.929688 34.9375 -49.234375 C 36.914062 -48.535156 39.300781 -47.757812 42.09375 -46.90625 C 43.476562 -46.375 44.8125 -45.890625 46.09375 -45.453125 C 47.382812 -45.023438 48.617188 -44.597656 49.796875 -44.171875 C 50.972656 -43.742188 52.070312 -43.316406 53.09375 -42.890625 C 54.113281 -42.460938 55.050781 -42.035156 55.90625 -41.609375 C 59.757812 -39.785156 62.8125 -37.269531 65.0625 -34.0625 C 67.414062 -30.738281 68.59375 -26.503906 68.59375 -21.359375 C 68.59375 -18.796875 68.191406 -16.304688 67.390625 -13.890625 C 66.585938 -11.484375 65.4375 -9.207031 63.9375 -7.0625 C 62.4375 -4.925781 60.664062 -3.050781 58.625 -1.4375 C 56.59375 0.164062 54.289062 1.5 51.71875 2.5625 C 47.976562 4.28125 43.859375 5.351562 39.359375 5.78125 C 37.960938 5.882812 36.515625 5.9375 35.015625 5.9375 C 25.703125 5.9375 18.097656 4.28125 12.203125 0.96875 Z M 12.203125 0.96875 "/></g></g></g></svg>